<svg width="15" height="15" viewBox="0 0 15 15" fill="none" xmlns="http://www.w3.org/2000/svg">
<path d="M9.69707 8.77354C9.69707 8.89601 9.64842 9.01346 9.56183 9.10006C9.47523 9.18665 9.35778 9.2353 9.23531 9.2353H5.54119C5.41872 9.2353 5.30127 9.18665 5.21467 9.10006C5.12808 9.01346 5.07943 8.89601 5.07943 8.77354C5.07943 8.65107 5.12808 8.53362 5.21467 8.44702C5.30127 8.36042 5.41872 8.31177 5.54119 8.31177H9.23531C9.35778 8.31177 9.47523 8.36042 9.56183 8.44702C9.64842 8.53362 9.69707 8.65107 9.69707 8.77354ZM9.23531 6.46472H5.54119C5.41872 6.46472 5.30127 6.51336 5.21467 6.59996C5.12808 6.68656 5.07943 6.80401 5.07943 6.92648C5.07943 7.04895 5.12808 7.1664 5.21467 7.253C5.30127 7.33959 5.41872 7.38824 5.54119 7.38824H9.23531C9.35778 7.38824 9.47523 7.33959 9.56183 7.253C9.64842 7.1664 9.69707 7.04895 9.69707 6.92648C9.69707 6.80401 9.64842 6.68656 9.56183 6.59996C9.47523 6.51336 9.35778 6.46472 9.23531 6.46472ZM12.4677 2.7706V12.4677C12.4677 12.7126 12.3704 12.9475 12.1972 13.1207C12.024 13.2939 11.7891 13.3912 11.5441 13.3912H3.23237C2.98743 13.3912 2.75253 13.2939 2.57933 13.1207C2.40614 12.9475 2.30884 12.7126 2.30884 12.4677V2.7706C2.30884 2.52566 2.40614 2.29076 2.57933 2.11756C2.75253 1.94437 2.98743 1.84707 3.23237 1.84707H5.32532C5.58477 1.55657 5.90266 1.32415 6.25816 1.16502C6.61366 1.00588 6.99876 0.923622 7.38825 0.923622C7.77774 0.923622 8.16284 1.00588 8.51834 1.16502C8.87384 1.32415 9.19173 1.55657 9.45118 1.84707H11.5441C11.7891 1.84707 12.024 1.94437 12.1972 2.11756C12.3704 2.29076 12.4677 2.52566 12.4677 2.7706ZM5.54119 3.69413H9.23531C9.23531 3.20426 9.04071 2.73445 8.69432 2.38806C8.34793 2.04167 7.87812 1.84707 7.38825 1.84707C6.89838 1.84707 6.42857 2.04167 6.08218 2.38806C5.73579 2.73445 5.54119 3.20426 5.54119 3.69413ZM11.5441 2.7706H10.0001C10.1051 3.06717 10.1588 3.3795 10.1588 3.69413V4.15589C10.1588 4.27836 10.1102 4.39581 10.0236 4.48241C9.93699 4.56901 9.81954 4.61766 9.69707 4.61766H5.07943C4.95696 4.61766 4.83951 4.56901 4.75291 4.48241C4.66631 4.39581 4.61766 4.27836 4.61766 4.15589V3.69413C4.61767 3.3795 4.67135 3.06717 4.77639 2.7706H3.23237V12.4677H11.5441V2.7706Z" fill="white"/>
</svg>
