<svg width="14" height="12" viewBox="0 0 14 12" fill="none" xmlns="http://www.w3.org/2000/svg">
<path d="M12.9325 1.38563H11.5469V0.461875C11.5469 0.339378 11.4982 0.221898 11.4116 0.13528C11.325 0.0486618 11.2075 0 11.085 0H2.77125C2.64875 0 2.53127 0.0486618 2.44466 0.13528C2.35804 0.221898 2.30938 0.339378 2.30938 0.461875V1.38563H0.92375C0.678756 1.38563 0.443797 1.48295 0.27056 1.65619C0.0973234 1.82942 0 2.06438 0 2.30938V3.23312C0 3.84561 0.243308 4.43301 0.6764 4.8661C0.890846 5.08054 1.14543 5.25065 1.42562 5.36671C1.7058 5.48277 2.0061 5.5425 2.30938 5.5425H2.52011C2.79218 6.40471 3.31093 7.16831 4.01225 7.73891C4.71357 8.30951 5.56672 8.6621 6.46625 8.75311V10.1613H5.08063C4.95813 10.1613 4.84065 10.2099 4.75403 10.2965C4.66741 10.3831 4.61875 10.5006 4.61875 10.6231C4.61875 10.7456 4.66741 10.8631 4.75403 10.9497C4.84065 11.0363 4.95813 11.085 5.08063 11.085H8.77563C8.89812 11.085 9.0156 11.0363 9.10222 10.9497C9.18884 10.8631 9.2375 10.7456 9.2375 10.6231C9.2375 10.5006 9.18884 10.3831 9.10222 10.2965C9.0156 10.2099 8.89812 10.1613 8.77563 10.1613H7.39V8.75138C9.23404 8.56489 10.764 7.27107 11.3206 5.5425H11.5469C12.1594 5.5425 12.7468 5.29919 13.1798 4.8661C13.6129 4.43301 13.8562 3.84561 13.8562 3.23312V2.30938C13.8562 2.06438 13.7589 1.82942 13.5857 1.65619C13.4125 1.48295 13.1775 1.38563 12.9325 1.38563ZM2.30938 4.61875C1.94188 4.61875 1.58945 4.47276 1.32959 4.21291C1.06974 3.95305 0.92375 3.60062 0.92375 3.23312V2.30938H2.30938V4.15688C2.30938 4.31083 2.31688 4.46479 2.33189 4.61875H2.30938ZM10.6231 4.10491C10.6231 6.15564 8.94883 7.83686 6.92812 7.85187C5.94815 7.85187 5.00831 7.46258 4.31537 6.76963C3.62242 6.07669 3.23312 5.13685 3.23312 4.15688V0.92375H10.6231V4.10491ZM12.9325 3.23312C12.9325 3.60062 12.7865 3.95305 12.5267 4.21291C12.2668 4.47276 11.9144 4.61875 11.5469 4.61875H11.518C11.537 4.44812 11.5466 4.27659 11.5469 4.10491V2.30938H12.9325V3.23312Z" fill="white"/>
</svg>
