<svg width="15" height="15" viewBox="0 0 15 15" fill="none" xmlns="http://www.w3.org/2000/svg">
<path d="M12.2898 1.02106C12.2345 0.977958 12.1701 0.948022 12.1015 0.93352C12.0329 0.919019 11.9619 0.920333 11.8938 0.937363L4.5056 2.78442C4.40571 2.80939 4.31702 2.86704 4.25364 2.94819C4.19027 3.02935 4.15583 3.12936 4.15582 3.23233V9.58622C3.77061 9.32884 3.31044 9.20757 2.84842 9.24168C2.38639 9.27579 1.94902 9.46332 1.60578 9.77448C1.26255 10.0856 1.03314 10.5026 0.954004 10.959C0.874869 11.4155 0.950547 11.8853 1.16901 12.2939C1.38748 12.7024 1.73621 13.0262 2.15979 13.2139C2.58337 13.4015 3.05751 13.4422 3.50687 13.3295C3.95623 13.2168 4.35505 12.9572 4.63996 12.5919C4.92486 12.2265 5.07952 11.7765 5.07935 11.3132V6.36368L11.5441 4.7475V7.73916C11.1588 7.48178 10.6987 7.36051 10.2367 7.39462C9.77463 7.42873 9.33725 7.61626 8.99402 7.92742C8.65078 8.23857 8.42137 8.65551 8.34224 9.11198C8.2631 9.56845 8.33878 10.0383 8.55725 10.4468C8.77572 10.8553 9.12444 11.1792 9.54802 11.3668C9.9716 11.5544 10.4457 11.5951 10.8951 11.4824C11.3445 11.3698 11.7433 11.1101 12.0282 10.7448C12.3131 10.3795 12.4678 9.92944 12.4676 9.46616V1.38527C12.4676 1.31504 12.4516 1.24573 12.4208 1.18262C12.39 1.11951 12.3452 1.06425 12.2898 1.02106ZM3.00141 12.4676C2.77308 12.4676 2.54989 12.3999 2.36005 12.2731C2.17021 12.1462 2.02224 11.9659 1.93487 11.755C1.84749 11.544 1.82463 11.3119 1.86918 11.088C1.91372 10.8641 2.02367 10.6584 2.18511 10.4969C2.34656 10.3355 2.55226 10.2255 2.77619 10.181C3.00013 10.1364 3.23224 10.1593 3.44318 10.2467C3.65412 10.3341 3.83442 10.482 3.96126 10.6719C4.08811 10.8617 4.15582 11.0849 4.15582 11.3132C4.15582 11.6194 4.03419 11.913 3.8177 12.1295C3.6012 12.346 3.30757 12.4676 3.00141 12.4676ZM5.07935 5.41129V3.59309L11.5441 1.97691V3.79511L5.07935 5.41129ZM10.3896 10.6206C10.1613 10.6206 9.93813 10.5529 9.74828 10.426C9.55844 10.2992 9.41048 10.1189 9.3231 9.90793C9.23573 9.69699 9.21287 9.46488 9.25741 9.24094C9.30195 9.01701 9.4119 8.81131 9.57335 8.64986C9.7348 8.48842 9.94049 8.37847 10.1644 8.33393C10.3884 8.28938 10.6205 8.31224 10.8314 8.39962C11.0424 8.48699 11.2227 8.63496 11.3495 8.8248C11.4763 9.01464 11.5441 9.23783 11.5441 9.46616C11.5441 9.77233 11.4224 10.066 11.2059 10.2824C10.9894 10.4989 10.6958 10.6206 10.3896 10.6206Z" fill="white"/>
</svg>
