<svg width="15" height="15" viewBox="0 0 15 15" fill="none" xmlns="http://www.w3.org/2000/svg">
<path d="M11.0826 5.54119C11.0826 7.1868 9.67015 8.54901 7.85022 8.74814V9.23531C7.85022 9.35777 7.80157 9.47522 7.71497 9.56182C7.62837 9.64842 7.51092 9.69707 7.38845 9.69707C7.26599 9.69707 7.14853 9.64842 7.06194 9.56182C6.97534 9.47522 6.92669 9.35777 6.92669 9.23531V8.31178C6.92669 8.18931 6.97534 8.07186 7.06194 7.98526C7.14853 7.89866 7.26599 7.85001 7.38845 7.85001C8.91632 7.85001 10.159 6.8145 10.159 5.54119C10.159 4.26787 8.91632 3.23236 7.38845 3.23236C5.86059 3.23236 4.61787 4.26787 4.61787 5.54119C4.61787 5.66366 4.56922 5.78111 4.48262 5.8677C4.39602 5.9543 4.27857 6.00295 4.1561 6.00295C4.03363 6.00295 3.91618 5.9543 3.82958 5.8677C3.74299 5.78111 3.69434 5.66366 3.69434 5.54119C3.69434 3.75878 5.35149 2.30883 7.38845 2.30883C9.42541 2.30883 11.0826 3.75878 11.0826 5.54119ZM7.38845 11.0824C7.2058 11.0824 7.02724 11.1365 6.87537 11.238C6.72349 11.3395 6.60512 11.4837 6.53522 11.6525C6.46532 11.8212 6.44703 12.0069 6.48267 12.1861C6.5183 12.3652 6.60626 12.5298 6.73542 12.6589C6.86458 12.7881 7.02913 12.876 7.20828 12.9117C7.38743 12.9473 7.57312 12.929 7.74187 12.8591C7.91063 12.7892 8.05486 12.6709 8.15634 12.519C8.25782 12.3671 8.31198 12.1886 8.31198 12.0059C8.31198 11.761 8.21468 11.5261 8.04149 11.3529C7.86829 11.1797 7.63339 11.0824 7.38845 11.0824Z" fill="white"/>
</svg>
