<svg width="16" height="16" viewBox="0 0 16 16" fill="none" xmlns="http://www.w3.org/2000/svg">
<path d="M9.71786 1.95875V13.5861C9.71933 13.6732 9.69823 13.7591 9.65661 13.8355C9.61499 13.9119 9.55427 13.9763 9.48038 14.0222C9.3964 14.0722 9.29933 14.0957 9.20181 14.0896C9.1043 14.0835 9.01088 14.0482 8.93375 13.9882L4.95126 10.8907C4.92238 10.8678 4.89907 10.8388 4.88308 10.8056C4.86708 10.7725 4.85883 10.7361 4.85894 10.6993V4.8492C4.85905 4.81225 4.86758 4.77582 4.8839 4.74266C4.90021 4.70951 4.92387 4.68051 4.95308 4.65788L8.93557 1.56032C9.02285 1.49269 9.13056 1.4568 9.24096 1.45857C9.35136 1.46034 9.45786 1.49965 9.54293 1.57004C9.59881 1.61804 9.64344 1.67774 9.67367 1.74492C9.7039 1.8121 9.71899 1.8851 9.71786 1.95875ZM3.64421 4.85892H1.94359C1.68585 4.85892 1.43868 4.9613 1.25643 5.14355C1.07419 5.32579 0.971802 5.57297 0.971802 5.8307V9.71784C0.971802 9.97557 1.07419 10.2227 1.25643 10.405C1.43868 10.5872 1.68585 10.6896 1.94359 10.6896H3.64421C3.70864 10.6896 3.77043 10.664 3.816 10.6185C3.86156 10.5729 3.88715 10.5111 3.88715 10.4467V5.10187C3.88715 5.03743 3.86156 4.97564 3.816 4.93008C3.77043 4.88452 3.70864 4.85892 3.64421 4.85892ZM11.3438 6.12467C11.2958 6.16683 11.2566 6.21804 11.2284 6.27537C11.2003 6.3327 11.1837 6.39502 11.1796 6.45876C11.1755 6.52251 11.1841 6.58643 11.2048 6.64687C11.2254 6.70731 11.2578 6.76308 11.3 6.81099C11.5344 7.07716 11.6637 7.41963 11.6637 7.77427C11.6637 8.12891 11.5344 8.47138 11.3 8.73755C11.2567 8.78522 11.2232 8.84104 11.2016 8.90177C11.18 8.96249 11.1707 9.02691 11.1742 9.09127C11.1778 9.15562 11.1941 9.21863 11.2222 9.27662C11.2503 9.33462 11.2897 9.38643 11.3381 9.42906C11.3864 9.47168 11.4427 9.50426 11.5038 9.5249C11.5649 9.54554 11.6294 9.55382 11.6937 9.54927C11.758 9.54472 11.8207 9.52742 11.8783 9.49839C11.9358 9.46935 11.987 9.42916 12.0289 9.38014C12.4197 8.93648 12.6353 8.36552 12.6353 7.77427C12.6353 7.18302 12.4197 6.61206 12.0289 6.1684C11.9867 6.12033 11.9355 6.08106 11.8781 6.05283C11.8207 6.02461 11.7583 6.00799 11.6945 6.00392C11.6307 5.99986 11.5667 6.00844 11.5062 6.02916C11.4457 6.04988 11.3899 6.08233 11.3419 6.12467H11.3438ZM13.8273 4.53519C13.7855 4.48522 13.734 4.44417 13.676 4.41448C13.618 4.38478 13.5547 4.36706 13.4897 4.36236C13.4247 4.35766 13.3594 4.36607 13.2978 4.38711C13.2361 4.40814 13.1793 4.44136 13.1307 4.4848C13.0822 4.52823 13.0428 4.58099 13.0151 4.63994C12.9873 4.69888 12.9717 4.76281 12.9691 4.82791C12.9665 4.89302 12.9771 4.95797 13.0002 5.01891C13.0232 5.07985 13.0583 5.13554 13.1033 5.18265C13.7409 5.89534 14.0933 6.81803 14.0933 7.77427C14.0933 8.73051 13.7409 9.6532 13.1033 10.3659C13.0583 10.413 13.0232 10.4687 13.0002 10.5296C12.9771 10.5906 12.9665 10.6555 12.9691 10.7206C12.9717 10.7857 12.9873 10.8497 13.0151 10.9086C13.0428 10.9676 13.0822 11.0203 13.1307 11.0637C13.1793 11.1072 13.2361 11.1404 13.2978 11.1614C13.3594 11.1825 13.4247 11.1909 13.4897 11.1862C13.5547 11.1815 13.618 11.1638 13.676 11.1341C13.734 11.1044 13.7855 11.0633 13.8273 11.0133C14.624 10.1225 15.0644 8.96936 15.0644 7.77427C15.0644 6.57918 14.624 5.42601 13.8273 4.53519Z" fill="white"/>
</svg>
