<svg width="15" height="15" viewBox="0 0 15 15" fill="none" xmlns="http://www.w3.org/2000/svg">
<path d="M11.8026 11.1529C11.8452 11.1956 11.8791 11.2462 11.9021 11.302C11.9252 11.3577 11.9371 11.4174 11.9371 11.4778C11.9371 11.5381 11.9252 11.5978 11.9021 11.6536C11.8791 11.7093 11.8452 11.7599 11.8026 11.8026C11.7599 11.8452 11.7093 11.8791 11.6535 11.9022C11.5978 11.9252 11.5381 11.9371 11.4777 11.9371C11.4174 11.9371 11.3577 11.9252 11.302 11.9022C11.2462 11.8791 11.1956 11.8452 11.1529 11.8026L7.34575 7.99483L3.53858 11.8026C3.45243 11.8887 3.33559 11.9371 3.21376 11.9371C3.09193 11.9371 2.97509 11.8887 2.88894 11.8026C2.80279 11.7164 2.75439 11.5996 2.75439 11.4778C2.75439 11.3559 2.80279 11.2391 2.88894 11.1529L6.69669 7.34577L2.88894 3.53859C2.80279 3.45244 2.75439 3.3356 2.75439 3.21377C2.75439 3.09194 2.80279 2.9751 2.88894 2.88895C2.97509 2.8028 3.09193 2.75441 3.21376 2.75441C3.33559 2.75441 3.45243 2.8028 3.53858 2.88895L7.34575 6.6967L11.1529 2.88895C11.2391 2.8028 11.3559 2.75441 11.4777 2.75441C11.5996 2.75441 11.7164 2.8028 11.8026 2.88895C11.8887 2.9751 11.9371 3.09194 11.9371 3.21377C11.9371 3.3356 11.8887 3.45244 11.8026 3.53859L7.99482 7.34577L11.8026 11.1529Z" fill="white"/>
</svg>
