<svg width="125" height="33" viewBox="0 0 125 33" fill="none" xmlns="http://www.w3.org/2000/svg">
<mask id="path-1-outside-1_1_100" maskUnits="userSpaceOnUse" x="-1.15087" y="-3.19208" width="126.309" height="39.1831" fill="black">
<rect fill="white" x="-1.15087" y="-3.19208" width="126.309" height="39.1831"/>
<path d="M4.26735 9.17647C5.0095 8.42958 5.83858 7.79681 6.75458 7.27818C7.68383 6.73892 8.62269 6.36609 9.57116 6.15969C9.68972 6.13389 9.81859 6.11471 9.95777 6.10216C10.1102 6.06899 10.3238 6.03139 10.5984 5.98935L10.6555 25.0818C11.0635 25.0818 11.5098 25.1354 11.9944 25.2428C12.4922 25.3296 13.2519 25.5191 14.2733 25.8112C15.8074 26.2579 16.9644 26.5206 17.7443 26.5992C18.5242 26.6778 19.2444 26.6453 19.9049 26.5015C20.2945 26.4168 20.6512 26.3036 20.9752 26.1622C21.3162 26.017 21.6413 25.8399 21.9505 25.6307C22.0804 26.8796 21.9856 27.9113 21.6662 28.7259C21.3504 29.5574 20.8538 30.0468 20.1763 30.1943C19.5666 30.327 18.8777 30.2995 18.1096 30.1119C17.362 29.9375 16.1741 29.451 14.5457 28.6523C12.6735 27.7115 11.2528 27.1338 10.2836 26.9189C9.31815 26.721 8.42045 26.7124 7.59054 26.893C7.43811 26.9262 7.31955 26.952 7.23486 26.9704C7.15018 26.9888 7.07581 27.0139 7.01174 27.0455L6.96585 8.61584C5.91734 9.34071 5.19142 10.2437 4.78809 11.3249C4.38476 12.406 4.32683 13.6071 4.61432 14.9282C4.68435 15.25 4.7621 15.5258 4.84757 15.7555C4.94998 15.9816 5.07596 16.1937 5.22549 16.3917C5.27411 16.4521 5.3021 16.4992 5.30948 16.5331C5.3301 16.5464 5.34225 16.5615 5.34594 16.5784C4.39747 16.7848 3.66067 16.7411 3.13554 16.4474C2.62366 16.1331 2.27557 15.5525 2.09129 14.7056C1.907 13.8588 2.00218 12.9511 2.37681 11.9826C2.76838 11.0105 3.39856 10.0751 4.26735 9.17647ZM18.129 21.8128C18.5739 21.7412 18.9372 21.4896 19.2189 21.058C19.5149 20.6065 19.7149 19.995 19.8189 19.2233L20.2381 10.7024L23.9345 10.1074L23.4912 19.1326C23.4817 19.2921 23.4795 19.4417 23.4844 19.5813C23.4866 19.7039 23.4987 19.8336 23.5207 19.9705C23.5758 20.3128 23.6927 20.5485 23.8716 20.6777C24.0647 20.7871 24.3495 20.8115 24.726 20.7509C25.171 20.6793 25.5415 20.4177 25.8375 19.9663C26.1335 19.5148 26.3349 18.9118 26.4417 18.1573L27.5198 17.9837C27.2256 19.6463 26.7068 20.95 25.9635 21.8948C25.2175 22.8224 24.2712 23.3786 23.1246 23.5631C22.3887 23.6816 21.7653 23.5712 21.2542 23.2322C20.7404 22.8759 20.3859 22.3097 20.1908 21.5336C19.8267 22.4349 19.3612 23.1418 18.7941 23.6545C18.2414 24.1472 17.5714 24.457 16.7842 24.5837C15.9286 24.7214 15.2099 24.565 14.6282 24.1144C14.0609 23.6439 13.6988 22.9209 13.5417 21.9455C13.5059 21.723 13.4831 21.4721 13.4733 21.1928C13.4607 20.8963 13.4624 20.58 13.4785 20.2439L13.8977 11.723L17.5941 11.128L17.1508 20.1531C17.1386 20.2956 17.1336 20.428 17.1357 20.5506C17.1523 20.6533 17.1702 20.7645 17.1895 20.8843C17.2445 21.2265 17.3471 21.4822 17.4972 21.6511C17.6617 21.8002 17.8723 21.8541 18.129 21.8128ZM35.4899 10.943C35.5536 11.5289 35.4749 12.0082 35.2539 12.381C35.0483 12.7346 34.7387 12.9339 34.3251 12.9789C34.1873 12.9939 34.038 12.984 33.8773 12.9491C33.7166 12.9143 33.5531 12.8536 33.3867 12.7671C33.4601 12.4801 33.5086 12.2046 33.5322 11.9405C33.5558 11.6764 33.5554 11.4324 33.5311 11.2084C33.4936 10.8637 33.4052 10.6118 33.2658 10.4526C33.1246 10.2762 32.9334 10.2011 32.6921 10.2273C31.9339 10.3097 31.2885 11.2691 30.7559 13.1055C30.2214 14.9246 30.0394 16.6182 30.2099 18.1863C30.2961 18.9789 30.4863 19.5249 30.7803 19.8242C31.0917 20.1216 31.6006 20.2319 32.3071 20.1551C33.117 20.067 33.8382 19.8055 34.4709 19.3706C35.119 18.9165 35.8281 18.142 36.5982 17.047L37.477 16.9514C36.6537 18.6799 35.6993 20.0042 34.6137 20.9243C33.5263 21.8271 32.2847 22.3544 30.8889 22.5062C29.5621 22.6505 28.5165 22.4154 27.7523 21.8011C27.0053 21.1849 26.5578 20.1962 26.4098 18.8349C26.303 17.8527 26.3361 16.7942 26.5091 15.6595C26.6994 14.523 27.0147 13.4948 27.4552 12.5752C27.9804 11.4719 28.6543 10.6141 29.4769 10.0015C30.3148 9.36992 31.2766 8.99509 32.3622 8.87704C33.31 8.77399 34.0476 8.90301 34.575 9.26411C35.1006 9.60797 35.4056 10.1676 35.4899 10.943ZM42.7063 3.13506L41.2664 12.381L46.0577 8.15709L48.6278 8.01448L43.636 11.911C43.8763 11.863 44.048 11.8274 44.1508 11.8043C44.271 11.7803 44.383 11.7654 44.4869 11.7597C45.3695 11.7107 46.0772 11.9492 46.6098 12.4751C47.1597 13.0001 47.4601 13.7213 47.511 14.6385C47.5206 14.8116 47.5216 14.9851 47.5139 15.1592C47.5052 15.3159 47.4879 15.4731 47.4619 15.6308L47.2484 16.9446C47.2253 17.1542 47.2003 17.3292 47.1734 17.4696C47.1637 17.609 47.1609 17.7133 47.1647 17.7825C47.1829 18.1114 47.2743 18.3493 47.4387 18.4965C47.6204 18.6426 47.8843 18.7061 48.2304 18.6869C48.6631 18.6629 49.027 18.4951 49.3222 18.1836C49.6174 17.8721 49.9381 17.2381 50.2843 16.2814L51.3746 16.2209C50.9265 17.8429 50.3269 19.0827 49.5759 19.9403C48.824 20.7806 47.9202 21.23 46.8645 21.2886C45.8088 21.3471 44.9814 21.1413 44.3825 20.6711C43.7998 20.1827 43.4821 19.4625 43.4293 18.5106C43.4178 18.3029 43.4144 18.0861 43.4192 17.8602C43.4414 17.6333 43.4717 17.3972 43.5101 17.1521L43.6616 16.1281C43.6876 15.9704 43.7049 15.8132 43.7136 15.6565C43.7223 15.4998 43.7218 15.3349 43.7122 15.1618C43.6891 14.7464 43.594 14.4392 43.4267 14.2402C43.2594 14.0412 43.02 13.9503 42.7085 13.9676C42.4489 13.982 42.1676 14.0757 41.8648 14.2488C41.5782 14.4035 41.2369 14.6655 40.8407 15.0347L39.8466 21.5217L36.1084 21.7292L38.893 3.86746L42.7063 3.13506ZM54.8715 18.5645C55.3048 18.5646 55.6949 18.3827 56.0417 18.0189C56.3885 17.655 56.6746 17.1264 56.9002 16.4332L58.7231 7.93177L62.4671 7.93303L59.889 19.9962C60.7558 19.6845 61.4319 19.2513 61.9174 18.6968C62.4203 18.125 62.8366 17.3192 63.1663 16.2793L64.2583 16.2796C63.8592 17.5968 63.2868 18.654 62.5412 19.4511C61.8129 20.2481 60.8507 20.8112 59.6546 21.1401L59.264 23.012C58.9515 24.4678 58.4051 25.5683 57.6249 26.3134C56.8446 27.0585 55.8305 27.4308 54.5825 27.4304C53.6985 27.4301 52.9879 27.2045 52.4507 26.7537C51.9309 26.3028 51.6711 25.6874 51.6713 24.9074C51.6716 24.0581 52.0186 23.3042 52.7121 22.6457C53.423 22.0046 54.4892 21.4677 55.9107 21.0348L56.2231 19.6309C55.7896 20.1161 55.3128 20.4799 54.7928 20.7224C54.29 20.9649 53.7266 21.0861 53.1026 21.0859C52.236 21.0856 51.5514 20.8167 51.0489 20.2792C50.5638 19.7243 50.3214 18.9529 50.3217 17.9649C50.3218 17.7396 50.3392 17.4883 50.3739 17.2109C50.4087 16.9163 50.4608 16.6043 50.5303 16.275L52.3011 7.9296L56.0451 7.93086L54.1701 16.7702C54.1527 16.8742 54.1354 16.9869 54.118 17.1082C54.1006 17.2122 54.0919 17.3162 54.0919 17.4202C54.0918 17.7842 54.1523 18.0702 54.2736 18.2783C54.4122 18.469 54.6115 18.5644 54.8715 18.5645ZM55.6502 22.3347C54.7834 22.6638 54.142 23.0016 53.7259 23.3481C53.3098 23.7119 53.1016 24.1105 53.1015 24.5439C53.1014 24.7692 53.188 24.9686 53.3613 25.142C53.5345 25.3153 53.7425 25.4021 53.9852 25.4022C54.2798 25.4023 54.5659 25.1944 54.8434 24.7785C55.1209 24.3626 55.3377 23.7993 55.494 23.0887L55.6502 22.3347ZM83.371 5.9121C82.9045 5.87421 82.389 5.79755 81.8245 5.68213C81.2787 5.55083 80.5982 5.36512 79.7829 5.12499L78.2756 10.1936L82.0591 10.5009L81.4887 12.3849L77.7051 12.0776L74.8145 21.6509L71.0828 21.3478L76.2208 4.33997C75.0245 4.29496 74.1235 4.68261 73.5178 5.50292C72.9293 6.32464 72.5621 7.63387 72.4161 9.43062C72.3894 9.75887 72.3836 10.0453 72.3985 10.29C72.4306 10.5361 72.4894 10.7756 72.5749 11.0087C72.6038 11.0806 72.6169 11.1338 72.6141 11.1683C72.6299 11.187 72.6372 11.205 72.6358 11.2223C71.6683 11.1437 70.9761 10.8875 70.5592 10.4536C70.161 10.0039 69.9969 9.34712 70.0671 8.4833C70.2341 6.42741 71.1356 4.85724 72.7714 3.77281C74.4259 2.6725 76.6526 2.23603 79.4514 2.4634C79.6069 2.47603 79.7962 2.50011 80.0194 2.53563C80.2426 2.57115 80.6112 2.63588 81.1253 2.72981C81.8107 2.85506 82.3335 2.9497 82.6934 3.01373C83.0721 3.06188 83.417 3.09859 83.7279 3.12385C84.1944 3.16175 84.6198 3.17022 85.0041 3.14927C85.3884 3.12831 85.7488 3.07934 86.0855 3.00235C86.0654 3.0355 85.9659 3.29697 85.787 3.78676C85.6081 4.27654 85.4117 4.66057 85.1978 4.93883C84.9839 5.21709 84.7224 5.43931 84.4132 5.60549C84.1228 5.7558 83.7754 5.858 83.371 5.9121ZM83.4266 22.4904L79.715 21.9989L84.1536 9.47319L87.8652 9.96465L87.3186 11.5183C88.1588 10.9827 88.8074 10.6402 89.2643 10.4908C89.7406 10.3266 90.2022 10.2741 90.6489 10.3332C91.1816 10.4038 91.5862 10.6497 91.8626 11.0709C92.1413 11.475 92.2442 11.952 92.1714 12.5019C92.1009 13.0345 91.8699 13.4586 91.4785 13.7739C91.087 14.0893 90.6164 14.2105 90.0665 14.1377C89.7744 14.099 89.5515 13.9996 89.3979 13.8394C89.2614 13.6814 89.1873 13.3831 89.1754 12.9444C89.1603 12.6627 89.1229 12.4829 89.0633 12.405C89.0059 12.31 88.9171 12.2545 88.7968 12.2386C88.5047 12.1999 88.2218 12.2237 87.9481 12.3098C87.6744 12.396 87.2869 12.6157 86.7855 12.9689L83.4266 22.4904ZM95.0972 21.9153C95.5396 22.001 95.9673 21.8897 96.3802 21.5814C96.8134 21.2592 97.2115 20.7538 97.5746 20.065L100.899 12.208L104.574 12.9205L101.054 21.2427C100.99 21.3892 100.937 21.5289 100.893 21.6618C100.853 21.7776 100.82 21.9036 100.794 22.0397C100.728 22.38 100.756 22.6416 100.88 22.8244C101.024 22.9936 101.283 23.1144 101.657 23.187C102.099 23.2728 102.537 23.1546 102.971 22.8325C103.404 22.5104 103.8 22.0134 104.16 21.3416L105.232 21.5494C104.384 23.0094 103.449 24.0551 102.426 24.6867C101.406 25.3012 100.326 25.4979 99.1861 25.2769C98.4544 25.1351 97.9069 24.8171 97.5437 24.3229C97.1837 23.8117 97.0456 23.1581 97.1293 22.3622C96.4774 23.0833 95.7971 23.587 95.0883 23.8734C94.3999 24.146 93.6643 24.2064 92.8815 24.0547C92.0307 23.8898 91.4097 23.4957 91.0184 22.8725C90.6475 22.2356 90.5561 21.4322 90.7441 20.4623C90.787 20.241 90.8519 19.9976 90.9387 19.7319C91.0288 19.4492 91.1392 19.1528 91.27 18.8427L94.5941 10.9858L98.2696 11.6983L94.7494 20.0205C94.689 20.15 94.6387 20.2727 94.5986 20.3885C94.5788 20.4906 94.5574 20.6012 94.5343 20.7203C94.4683 21.0606 94.4768 21.3359 94.5596 21.5462C94.6627 21.7428 94.8419 21.8658 95.0972 21.9153ZM113.512 11.5156C113.372 12.0703 113.052 12.4903 112.551 12.7754C112.068 13.0647 111.548 13.1396 110.994 13.0001C110.439 12.8605 110.017 12.5488 109.727 12.0649C109.438 11.581 109.363 11.0617 109.503 10.507C109.642 9.95229 109.954 9.53026 110.438 9.24091C110.926 8.93474 111.447 8.85144 112.002 8.991C112.557 9.13055 112.977 9.45068 113.262 9.95138C113.568 10.4395 113.651 10.9609 113.512 11.5156ZM103.79 22.9842C103.845 22.7657 103.923 22.5262 104.024 22.2657C104.13 21.9884 104.256 21.6985 104.404 21.3961L108.155 13.7336L111.786 14.6471L107.813 22.7632C107.742 22.9061 107.681 23.0426 107.63 23.1728C107.584 23.2863 107.543 23.4102 107.51 23.5447C107.425 23.8809 107.439 24.1437 107.553 24.333C107.687 24.5098 107.939 24.6447 108.309 24.7377C108.779 24.8561 109.276 24.7665 109.797 24.4688C110.323 24.1543 110.77 23.6946 111.136 23.0898L112.195 23.3562C111.272 24.7505 110.258 25.7286 109.151 26.2902C108.045 26.8519 106.903 26.9847 105.727 26.6887C104.886 26.4773 104.288 26.0497 103.931 25.4059C103.596 24.7496 103.549 23.9424 103.79 22.9842ZM114.522 15.3822L115.346 15.6237L117.104 12.4003L120.943 12.9844L118.938 16.6775L120.435 17.1166L119.943 18.056L118.446 17.6169L114.654 24.6332C114.576 24.7731 114.51 24.9072 114.454 25.0354C114.404 25.1469 114.359 25.2692 114.32 25.4023C114.222 25.7349 114.226 25.9981 114.332 26.1917C114.459 26.3735 114.706 26.5181 115.072 26.6254C115.538 26.762 116.037 26.6917 116.57 26.4145C117.108 26.1207 117.571 25.6787 117.961 25.0886L119.009 25.396C118.033 26.7534 116.981 27.6912 115.854 28.2095C114.726 28.7278 113.58 28.8162 112.416 28.4746C111.584 28.2307 111.003 27.7802 110.672 27.1231C110.362 26.4542 110.346 25.6458 110.625 24.6977C110.688 24.4815 110.775 24.2452 110.887 23.9888C111.003 23.7158 111.141 23.4311 111.3 23.1346L114.853 16.5631L114.03 16.3216L114.522 15.3822Z"/>
</mask>
<path d="M4.26735 9.17647C5.0095 8.42958 5.83858 7.79681 6.75458 7.27818C7.68383 6.73892 8.62269 6.36609 9.57116 6.15969C9.68972 6.13389 9.81859 6.11471 9.95777 6.10216C10.1102 6.06899 10.3238 6.03139 10.5984 5.98935L10.6555 25.0818C11.0635 25.0818 11.5098 25.1354 11.9944 25.2428C12.4922 25.3296 13.2519 25.5191 14.2733 25.8112C15.8074 26.2579 16.9644 26.5206 17.7443 26.5992C18.5242 26.6778 19.2444 26.6453 19.9049 26.5015C20.2945 26.4168 20.6512 26.3036 20.9752 26.1622C21.3162 26.017 21.6413 25.8399 21.9505 25.6307C22.0804 26.8796 21.9856 27.9113 21.6662 28.7259C21.3504 29.5574 20.8538 30.0468 20.1763 30.1943C19.5666 30.327 18.8777 30.2995 18.1096 30.1119C17.362 29.9375 16.1741 29.451 14.5457 28.6523C12.6735 27.7115 11.2528 27.1338 10.2836 26.9189C9.31815 26.721 8.42045 26.7124 7.59054 26.893C7.43811 26.9262 7.31955 26.952 7.23486 26.9704C7.15018 26.9888 7.07581 27.0139 7.01174 27.0455L6.96585 8.61584C5.91734 9.34071 5.19142 10.2437 4.78809 11.3249C4.38476 12.406 4.32683 13.6071 4.61432 14.9282C4.68435 15.25 4.7621 15.5258 4.84757 15.7555C4.94998 15.9816 5.07596 16.1937 5.22549 16.3917C5.27411 16.4521 5.3021 16.4992 5.30948 16.5331C5.3301 16.5464 5.34225 16.5615 5.34594 16.5784C4.39747 16.7848 3.66067 16.7411 3.13554 16.4474C2.62366 16.1331 2.27557 15.5525 2.09129 14.7056C1.907 13.8588 2.00218 12.9511 2.37681 11.9826C2.76838 11.0105 3.39856 10.0751 4.26735 9.17647ZM18.129 21.8128C18.5739 21.7412 18.9372 21.4896 19.2189 21.058C19.5149 20.6065 19.7149 19.995 19.8189 19.2233L20.2381 10.7024L23.9345 10.1074L23.4912 19.1326C23.4817 19.2921 23.4795 19.4417 23.4844 19.5813C23.4866 19.7039 23.4987 19.8336 23.5207 19.9705C23.5758 20.3128 23.6927 20.5485 23.8716 20.6777C24.0647 20.7871 24.3495 20.8115 24.726 20.7509C25.171 20.6793 25.5415 20.4177 25.8375 19.9663C26.1335 19.5148 26.3349 18.9118 26.4417 18.1573L27.5198 17.9837C27.2256 19.6463 26.7068 20.95 25.9635 21.8948C25.2175 22.8224 24.2712 23.3786 23.1246 23.5631C22.3887 23.6816 21.7653 23.5712 21.2542 23.2322C20.7404 22.8759 20.3859 22.3097 20.1908 21.5336C19.8267 22.4349 19.3612 23.1418 18.7941 23.6545C18.2414 24.1472 17.5714 24.457 16.7842 24.5837C15.9286 24.7214 15.2099 24.565 14.6282 24.1144C14.0609 23.6439 13.6988 22.9209 13.5417 21.9455C13.5059 21.723 13.4831 21.4721 13.4733 21.1928C13.4607 20.8963 13.4624 20.58 13.4785 20.2439L13.8977 11.723L17.5941 11.128L17.1508 20.1531C17.1386 20.2956 17.1336 20.428 17.1357 20.5506C17.1523 20.6533 17.1702 20.7645 17.1895 20.8843C17.2445 21.2265 17.3471 21.4822 17.4972 21.6511C17.6617 21.8002 17.8723 21.8541 18.129 21.8128ZM35.4899 10.943C35.5536 11.5289 35.4749 12.0082 35.2539 12.381C35.0483 12.7346 34.7387 12.9339 34.3251 12.9789C34.1873 12.9939 34.038 12.984 33.8773 12.9491C33.7166 12.9143 33.5531 12.8536 33.3867 12.7671C33.4601 12.4801 33.5086 12.2046 33.5322 11.9405C33.5558 11.6764 33.5554 11.4324 33.5311 11.2084C33.4936 10.8637 33.4052 10.6118 33.2658 10.4526C33.1246 10.2762 32.9334 10.2011 32.6921 10.2273C31.9339 10.3097 31.2885 11.2691 30.7559 13.1055C30.2214 14.9246 30.0394 16.6182 30.2099 18.1863C30.2961 18.9789 30.4863 19.5249 30.7803 19.8242C31.0917 20.1216 31.6006 20.2319 32.3071 20.1551C33.117 20.067 33.8382 19.8055 34.4709 19.3706C35.119 18.9165 35.8281 18.142 36.5982 17.047L37.477 16.9514C36.6537 18.6799 35.6993 20.0042 34.6137 20.9243C33.5263 21.8271 32.2847 22.3544 30.8889 22.5062C29.5621 22.6505 28.5165 22.4154 27.7523 21.8011C27.0053 21.1849 26.5578 20.1962 26.4098 18.8349C26.303 17.8527 26.3361 16.7942 26.5091 15.6595C26.6994 14.523 27.0147 13.4948 27.4552 12.5752C27.9804 11.4719 28.6543 10.6141 29.4769 10.0015C30.3148 9.36992 31.2766 8.99509 32.3622 8.87704C33.31 8.77399 34.0476 8.90301 34.575 9.26411C35.1006 9.60797 35.4056 10.1676 35.4899 10.943ZM42.7063 3.13506L41.2664 12.381L46.0577 8.15709L48.6278 8.01448L43.636 11.911C43.8763 11.863 44.048 11.8274 44.1508 11.8043C44.271 11.7803 44.383 11.7654 44.4869 11.7597C45.3695 11.7107 46.0772 11.9492 46.6098 12.4751C47.1597 13.0001 47.4601 13.7213 47.511 14.6385C47.5206 14.8116 47.5216 14.9851 47.5139 15.1592C47.5052 15.3159 47.4879 15.4731 47.4619 15.6308L47.2484 16.9446C47.2253 17.1542 47.2003 17.3292 47.1734 17.4696C47.1637 17.609 47.1609 17.7133 47.1647 17.7825C47.1829 18.1114 47.2743 18.3493 47.4387 18.4965C47.6204 18.6426 47.8843 18.7061 48.2304 18.6869C48.6631 18.6629 49.027 18.4951 49.3222 18.1836C49.6174 17.8721 49.9381 17.2381 50.2843 16.2814L51.3746 16.2209C50.9265 17.8429 50.3269 19.0827 49.5759 19.9403C48.824 20.7806 47.9202 21.23 46.8645 21.2886C45.8088 21.3471 44.9814 21.1413 44.3825 20.6711C43.7998 20.1827 43.4821 19.4625 43.4293 18.5106C43.4178 18.3029 43.4144 18.0861 43.4192 17.8602C43.4414 17.6333 43.4717 17.3972 43.5101 17.1521L43.6616 16.1281C43.6876 15.9704 43.7049 15.8132 43.7136 15.6565C43.7223 15.4998 43.7218 15.3349 43.7122 15.1618C43.6891 14.7464 43.594 14.4392 43.4267 14.2402C43.2594 14.0412 43.02 13.9503 42.7085 13.9676C42.4489 13.982 42.1676 14.0757 41.8648 14.2488C41.5782 14.4035 41.2369 14.6655 40.8407 15.0347L39.8466 21.5217L36.1084 21.7292L38.893 3.86746L42.7063 3.13506ZM54.8715 18.5645C55.3048 18.5646 55.6949 18.3827 56.0417 18.0189C56.3885 17.655 56.6746 17.1264 56.9002 16.4332L58.7231 7.93177L62.4671 7.93303L59.889 19.9962C60.7558 19.6845 61.4319 19.2513 61.9174 18.6968C62.4203 18.125 62.8366 17.3192 63.1663 16.2793L64.2583 16.2796C63.8592 17.5968 63.2868 18.654 62.5412 19.4511C61.8129 20.2481 60.8507 20.8112 59.6546 21.1401L59.264 23.012C58.9515 24.4678 58.4051 25.5683 57.6249 26.3134C56.8446 27.0585 55.8305 27.4308 54.5825 27.4304C53.6985 27.4301 52.9879 27.2045 52.4507 26.7537C51.9309 26.3028 51.6711 25.6874 51.6713 24.9074C51.6716 24.0581 52.0186 23.3042 52.7121 22.6457C53.423 22.0046 54.4892 21.4677 55.9107 21.0348L56.2231 19.6309C55.7896 20.1161 55.3128 20.4799 54.7928 20.7224C54.29 20.9649 53.7266 21.0861 53.1026 21.0859C52.236 21.0856 51.5514 20.8167 51.0489 20.2792C50.5638 19.7243 50.3214 18.9529 50.3217 17.9649C50.3218 17.7396 50.3392 17.4883 50.3739 17.2109C50.4087 16.9163 50.4608 16.6043 50.5303 16.275L52.3011 7.9296L56.0451 7.93086L54.1701 16.7702C54.1527 16.8742 54.1354 16.9869 54.118 17.1082C54.1006 17.2122 54.0919 17.3162 54.0919 17.4202C54.0918 17.7842 54.1523 18.0702 54.2736 18.2783C54.4122 18.469 54.6115 18.5644 54.8715 18.5645ZM55.6502 22.3347C54.7834 22.6638 54.142 23.0016 53.7259 23.3481C53.3098 23.7119 53.1016 24.1105 53.1015 24.5439C53.1014 24.7692 53.188 24.9686 53.3613 25.142C53.5345 25.3153 53.7425 25.4021 53.9852 25.4022C54.2798 25.4023 54.5659 25.1944 54.8434 24.7785C55.1209 24.3626 55.3377 23.7993 55.494 23.0887L55.6502 22.3347ZM83.371 5.9121C82.9045 5.87421 82.389 5.79755 81.8245 5.68213C81.2787 5.55083 80.5982 5.36512 79.7829 5.12499L78.2756 10.1936L82.0591 10.5009L81.4887 12.3849L77.7051 12.0776L74.8145 21.6509L71.0828 21.3478L76.2208 4.33997C75.0245 4.29496 74.1235 4.68261 73.5178 5.50292C72.9293 6.32464 72.5621 7.63387 72.4161 9.43062C72.3894 9.75887 72.3836 10.0453 72.3985 10.29C72.4306 10.5361 72.4894 10.7756 72.5749 11.0087C72.6038 11.0806 72.6169 11.1338 72.6141 11.1683C72.6299 11.187 72.6372 11.205 72.6358 11.2223C71.6683 11.1437 70.9761 10.8875 70.5592 10.4536C70.161 10.0039 69.9969 9.34712 70.0671 8.4833C70.2341 6.42741 71.1356 4.85724 72.7714 3.77281C74.4259 2.6725 76.6526 2.23603 79.4514 2.4634C79.6069 2.47603 79.7962 2.50011 80.0194 2.53563C80.2426 2.57115 80.6112 2.63588 81.1253 2.72981C81.8107 2.85506 82.3335 2.9497 82.6934 3.01373C83.0721 3.06188 83.417 3.09859 83.7279 3.12385C84.1944 3.16175 84.6198 3.17022 85.0041 3.14927C85.3884 3.12831 85.7488 3.07934 86.0855 3.00235C86.0654 3.0355 85.9659 3.29697 85.787 3.78676C85.6081 4.27654 85.4117 4.66057 85.1978 4.93883C84.9839 5.21709 84.7224 5.43931 84.4132 5.60549C84.1228 5.7558 83.7754 5.858 83.371 5.9121ZM83.4266 22.4904L79.715 21.9989L84.1536 9.47319L87.8652 9.96465L87.3186 11.5183C88.1588 10.9827 88.8074 10.6402 89.2643 10.4908C89.7406 10.3266 90.2022 10.2741 90.6489 10.3332C91.1816 10.4038 91.5862 10.6497 91.8626 11.0709C92.1413 11.475 92.2442 11.952 92.1714 12.5019C92.1009 13.0345 91.8699 13.4586 91.4785 13.7739C91.087 14.0893 90.6164 14.2105 90.0665 14.1377C89.7744 14.099 89.5515 13.9996 89.3979 13.8394C89.2614 13.6814 89.1873 13.3831 89.1754 12.9444C89.1603 12.6627 89.1229 12.4829 89.0633 12.405C89.0059 12.31 88.9171 12.2545 88.7968 12.2386C88.5047 12.1999 88.2218 12.2237 87.9481 12.3098C87.6744 12.396 87.2869 12.6157 86.7855 12.9689L83.4266 22.4904ZM95.0972 21.9153C95.5396 22.001 95.9673 21.8897 96.3802 21.5814C96.8134 21.2592 97.2115 20.7538 97.5746 20.065L100.899 12.208L104.574 12.9205L101.054 21.2427C100.99 21.3892 100.937 21.5289 100.893 21.6618C100.853 21.7776 100.82 21.9036 100.794 22.0397C100.728 22.38 100.756 22.6416 100.88 22.8244C101.024 22.9936 101.283 23.1144 101.657 23.187C102.099 23.2728 102.537 23.1546 102.971 22.8325C103.404 22.5104 103.8 22.0134 104.16 21.3416L105.232 21.5494C104.384 23.0094 103.449 24.0551 102.426 24.6867C101.406 25.3012 100.326 25.4979 99.1861 25.2769C98.4544 25.1351 97.9069 24.8171 97.5437 24.3229C97.1837 23.8117 97.0456 23.1581 97.1293 22.3622C96.4774 23.0833 95.7971 23.587 95.0883 23.8734C94.3999 24.146 93.6643 24.2064 92.8815 24.0547C92.0307 23.8898 91.4097 23.4957 91.0184 22.8725C90.6475 22.2356 90.5561 21.4322 90.7441 20.4623C90.787 20.241 90.8519 19.9976 90.9387 19.7319C91.0288 19.4492 91.1392 19.1528 91.27 18.8427L94.5941 10.9858L98.2696 11.6983L94.7494 20.0205C94.689 20.15 94.6387 20.2727 94.5986 20.3885C94.5788 20.4906 94.5574 20.6012 94.5343 20.7203C94.4683 21.0606 94.4768 21.3359 94.5596 21.5462C94.6627 21.7428 94.8419 21.8658 95.0972 21.9153ZM113.512 11.5156C113.372 12.0703 113.052 12.4903 112.551 12.7754C112.068 13.0647 111.548 13.1396 110.994 13.0001C110.439 12.8605 110.017 12.5488 109.727 12.0649C109.438 11.581 109.363 11.0617 109.503 10.507C109.642 9.95229 109.954 9.53026 110.438 9.24091C110.926 8.93474 111.447 8.85144 112.002 8.991C112.557 9.13055 112.977 9.45068 113.262 9.95138C113.568 10.4395 113.651 10.9609 113.512 11.5156ZM103.79 22.9842C103.845 22.7657 103.923 22.5262 104.024 22.2657C104.13 21.9884 104.256 21.6985 104.404 21.3961L108.155 13.7336L111.786 14.6471L107.813 22.7632C107.742 22.9061 107.681 23.0426 107.63 23.1728C107.584 23.2863 107.543 23.4102 107.51 23.5447C107.425 23.8809 107.439 24.1437 107.553 24.333C107.687 24.5098 107.939 24.6447 108.309 24.7377C108.779 24.8561 109.276 24.7665 109.797 24.4688C110.323 24.1543 110.77 23.6946 111.136 23.0898L112.195 23.3562C111.272 24.7505 110.258 25.7286 109.151 26.2902C108.045 26.8519 106.903 26.9847 105.727 26.6887C104.886 26.4773 104.288 26.0497 103.931 25.4059C103.596 24.7496 103.549 23.9424 103.79 22.9842ZM114.522 15.3822L115.346 15.6237L117.104 12.4003L120.943 12.9844L118.938 16.6775L120.435 17.1166L119.943 18.056L118.446 17.6169L114.654 24.6332C114.576 24.7731 114.51 24.9072 114.454 25.0354C114.404 25.1469 114.359 25.2692 114.32 25.4023C114.222 25.7349 114.226 25.9981 114.332 26.1917C114.459 26.3735 114.706 26.5181 115.072 26.6254C115.538 26.762 116.037 26.6917 116.57 26.4145C117.108 26.1207 117.571 25.6787 117.961 25.0886L119.009 25.396C118.033 26.7534 116.981 27.6912 115.854 28.2095C114.726 28.7278 113.58 28.8162 112.416 28.4746C111.584 28.2307 111.003 27.7802 110.672 27.1231C110.362 26.4542 110.346 25.6458 110.625 24.6977C110.688 24.4815 110.775 24.2452 110.887 23.9888C111.003 23.7158 111.141 23.4311 111.3 23.1346L114.853 16.5631L114.03 16.3216L114.522 15.3822Z" fill="url(#paint0_linear_1_100)"/>
<path d="M4.26734 9.17647L2.84864 7.76676L2.83898 7.77647L2.82947 7.78632L4.26734 9.17647ZM6.75458 7.27818L7.73999 9.01857L7.74924 9.01333L7.75842 9.008L6.75458 7.27818ZM9.57116 6.15969L9.99643 8.11395L9.57116 6.15969ZM9.95777 6.10216L10.1374 8.09408L10.2614 8.0829L10.383 8.05643L9.95777 6.10216ZM10.5984 5.98935L12.5984 5.98338L12.5915 3.66107L10.2959 4.01237L10.5984 5.98935ZM10.6555 25.0818L8.65553 25.0878L8.66149 27.0823L10.6559 27.0818L10.6555 25.0818ZM11.9944 25.2428L11.5615 27.1954L11.606 27.2053L11.6509 27.2131L11.9944 25.2428ZM14.2734 25.8112L14.8325 23.891L14.8233 23.8883L14.2734 25.8112ZM17.7443 26.5992L17.5436 28.5891L17.5436 28.5891L17.7443 26.5992ZM19.9049 26.5015L19.4796 24.5473L19.9049 26.5015ZM20.9752 26.1622L20.1918 24.322L20.1834 24.3256L20.175 24.3293L20.9752 26.1622ZM21.9505 25.6307L23.9398 25.4238L23.5946 22.1038L20.8299 23.9741L21.9505 25.6307ZM21.6662 28.7259L19.8042 27.9957L19.8003 28.0058L19.7965 28.0159L21.6662 28.7259ZM18.1095 30.1119L18.5841 28.169L18.574 28.1665L18.5639 28.1642L18.1095 30.1119ZM14.5457 28.6523L13.6477 30.4394L13.6563 30.4437L13.665 30.4479L14.5457 28.6523ZM10.2836 26.9189L10.7165 24.9663L10.7009 24.9629L10.6852 24.9597L10.2836 26.9189ZM7.01174 27.0455L5.01175 27.0505L5.01974 30.2618L7.8983 28.8383L7.01174 27.0455ZM6.96585 8.61584L8.96584 8.61086L8.95637 4.80834L5.82852 6.9707L6.96585 8.61584ZM4.61432 14.9282L2.66006 15.3535L4.61432 14.9282ZM4.84757 15.7555L2.9731 16.4529L2.99723 16.5178L3.0258 16.5809L4.84757 15.7555ZM5.2255 16.3917L3.62932 17.5968L3.64814 17.6217L3.66774 17.6461L5.2255 16.3917ZM5.30948 16.5331L3.35521 16.9584L3.53136 17.7679L4.2283 18.2157L5.30948 16.5331ZM5.34594 16.5784L5.77121 18.5327L7.72548 18.1074L7.3002 16.1531L5.34594 16.5784ZM3.13554 16.4474L2.08894 18.1517L2.12366 18.173L2.15922 18.1929L3.13554 16.4474ZM2.09129 14.7056L0.137029 15.1309L2.09129 14.7056ZM2.37681 11.9826L0.521639 11.2354L0.516484 11.2482L0.511501 11.2611L2.37681 11.9826ZM4.26734 9.17647L5.68605 10.5862C6.29958 9.96873 6.98288 9.44724 7.73999 9.01857L6.75458 7.27818L5.76917 5.53778C4.69428 6.14638 3.71943 6.89042 2.84864 7.76676L4.26734 9.17647ZM6.75458 7.27818L7.75842 9.008C8.52673 8.56214 9.2718 8.27164 9.99643 8.11395L9.57116 6.15969L9.14589 4.20542C7.97358 4.46053 6.84092 4.9157 5.75074 5.54835L6.75458 7.27818ZM9.57116 6.15969L9.99643 8.11395C10.0229 8.10819 10.0687 8.10028 10.1374 8.09408L9.95777 6.10216L9.77817 4.11024C9.56849 4.12915 9.35653 4.15958 9.14589 4.20542L9.57116 6.15969ZM9.95777 6.10216L10.383 8.05643C10.4752 8.03638 10.6411 8.00611 10.901 7.96634L10.5984 5.98935L10.2959 4.01237C10.0065 4.05666 9.74524 4.1016 9.5325 4.1479L9.95777 6.10216ZM10.5984 5.98935L8.59844 5.99533L8.65553 25.0878L10.6555 25.0818L12.6555 25.0759L12.5984 5.98338L10.5984 5.98935ZM10.6555 25.0818L10.6559 27.0818C10.8909 27.0818 11.1898 27.113 11.5615 27.1954L11.9944 25.2428L12.4272 23.2902C11.8298 23.1578 11.2361 23.0817 10.6551 23.0818L10.6555 25.0818ZM11.9944 25.2428L11.6509 27.2131C12.0384 27.2807 12.7129 27.4451 13.7234 27.7341L14.2734 25.8112L14.8233 23.8883C13.7908 23.5931 12.9461 23.3786 12.3379 23.2725L11.9944 25.2428ZM14.2734 25.8112L13.7142 27.7315C15.2711 28.1848 16.5732 28.4913 17.5436 28.5891L17.7443 26.5992L17.9449 24.6093C17.3556 24.5499 16.3437 24.331 14.8325 23.891L14.2734 25.8112ZM17.7443 26.5992L17.5436 28.5891C18.5001 28.6855 19.4344 28.6507 20.3302 28.4558L19.9049 26.5015L19.4796 24.5473C19.0544 24.6398 18.5482 24.6701 17.9449 24.6093L17.7443 26.5992ZM19.9049 26.5015L20.3302 28.4558C20.8324 28.3465 21.3167 28.1954 21.7755 27.9951L20.9752 26.1622L20.175 24.3293C19.9858 24.4119 19.7565 24.487 19.4796 24.5473L19.9049 26.5015ZM20.9752 26.1622L21.7587 28.0024C22.2185 27.8066 22.6565 27.5677 23.0712 27.2872L21.9505 25.6307L20.8299 23.9741C20.6261 24.112 20.4138 24.2275 20.1918 24.322L20.9752 26.1622ZM21.9505 25.6307L19.9612 25.8375C20.0715 26.8976 19.9673 27.5799 19.8042 27.9957L21.6662 28.7259L23.5281 29.4561C24.0039 28.2428 24.0893 26.8616 23.9398 25.4238L21.9505 25.6307ZM21.6662 28.7259L19.7965 28.0159C19.7135 28.2343 19.6482 28.2969 19.653 28.2922C19.6566 28.2886 19.6715 28.2753 19.6969 28.2616C19.7224 28.2478 19.743 28.2418 19.7511 28.24L20.1763 30.1943L20.6016 32.1485C22.1263 31.8167 23.0567 30.6979 23.5359 29.4359L21.6662 28.7259ZM20.1763 30.1943L19.7511 28.24C19.5067 28.2932 19.1336 28.3032 18.5841 28.169L18.1095 30.1119L17.635 32.0547C18.6217 32.2958 19.6265 32.3607 20.6016 32.1485L20.1763 30.1943ZM18.1095 30.1119L18.5639 28.1642C18.0599 28.0466 17.0525 27.6542 15.4264 26.8566L14.5457 28.6523L13.665 30.4479C15.2957 31.2477 16.6642 31.8284 17.6552 32.0596L18.1095 30.1119ZM14.5457 28.6523L15.4437 26.8652C13.5494 25.9134 11.9426 25.2381 10.7165 24.9663L10.2836 26.9189L9.85083 28.8715C10.5631 29.0294 11.7976 29.5097 13.6477 30.4394L14.5457 28.6523ZM10.2836 26.9189L10.6852 24.9597C9.4902 24.7147 8.30766 24.6901 7.16526 24.9387L7.59054 26.893L8.01581 28.8472C8.53324 28.7347 9.1461 28.7273 9.88206 28.8782L10.2836 26.9189ZM7.59054 26.893L7.16526 24.9387C7.10068 24.9528 7.22271 24.9262 7.15814 24.9403C7.00428 24.9738 7.30846 24.9076 7.1546 24.941C7.13399 24.9455 7.17169 24.9373 7.15107 24.9418C7.11315 24.9501 7.18196 24.9351 7.14405 24.9433C7.14225 24.9437 7.13887 24.9445 7.13708 24.9449C7.11391 24.9499 7.14639 24.9428 7.12329 24.9479C7.10788 24.9512 7.12503 24.9475 7.10969 24.9508C7.10884 24.951 7.1038 24.9521 7.10297 24.9523C7.07072 24.9593 7.12852 24.9467 7.09629 24.9537C7.09601 24.9538 7.09574 24.9539 7.09546 24.9539C7.09519 24.954 7.09491 24.954 7.09463 24.9541C7.07996 24.9573 7.10764 24.9513 7.09297 24.9545C7.0927 24.9545 7.09242 24.9546 7.09215 24.9546C7.09187 24.9547 7.09159 24.9548 7.09132 24.9548C7.09104 24.9549 7.09077 24.9549 7.0905 24.955C7.09022 24.9551 7.08994 24.9551 7.08967 24.9552C7.05285 24.9632 7.1199 24.9486 7.0831 24.9566C7.06925 24.9596 7.07088 24.9593 7.05729 24.9622C7.04168 24.9656 7.06023 24.9616 7.04468 24.965C7.03418 24.9673 7.05363 24.963 7.04313 24.9653C7.03797 24.9664 7.04673 24.9645 7.04157 24.9656C7.03698 24.9666 7.0446 24.965 7.04002 24.966C7.01806 24.9708 7.06042 24.9615 7.03846 24.9663C7.0382 24.9664 7.03794 24.9664 7.03769 24.9665C7.03743 24.9665 7.03717 24.9666 7.03691 24.9667C7.03666 24.9667 7.0364 24.9668 7.03614 24.9668C7.03588 24.9669 7.03563 24.9669 7.03537 24.967C7.02836 24.9685 7.03928 24.9661 7.03228 24.9677C6.97406 24.9803 7.07823 24.9577 7.02008 24.9703C7.01367 24.9717 7.02345 24.9696 7.01706 24.971C7.00563 24.9735 7.02547 24.9691 7.01404 24.9716C7.00633 24.9733 7.01577 24.9713 7.00807 24.9729C6.91966 24.9922 7.09351 24.9543 7.0051 24.9736C7.00485 24.9736 7.0046 24.9737 7.00436 24.9737C7.00411 24.9738 7.00387 24.9738 7.00362 24.9739C7.00337 24.974 7.00313 24.974 7.00288 24.9741C7.00263 24.9741 7.00238 24.9742 7.00214 24.9742C6.98843 24.9772 7.01437 24.9716 7.00067 24.9745C6.98997 24.9769 7.00988 24.9725 6.99919 24.9749C6.99823 24.9751 6.99868 24.975 6.99772 24.9752C6.99748 24.9752 6.99724 24.9753 6.997 24.9753C6.99675 24.9754 6.9965 24.9754 6.99626 24.9755C6.97549 24.98 7.01118 24.9723 6.99043 24.9768C6.97243 24.9807 7.00263 24.9741 6.98465 24.978C6.84894 25.0076 7.10888 24.951 6.97323 24.9805C6.94825 24.986 6.99258 24.9763 6.9676 24.9817C6.93159 24.9896 6.99802 24.9751 6.96202 24.983C6.8871 24.9993 7.01485 24.9715 6.94019 24.9877C6.91822 24.9925 6.95948 24.9835 6.93752 24.9883C6.91657 24.9928 6.9558 24.9843 6.93485 24.9889C6.93222 24.9894 6.93616 24.9886 6.93353 24.9892C6.93112 24.9897 6.93462 24.9889 6.9322 24.9894C6.9254 24.9909 6.93637 24.9885 6.92957 24.99C6.92561 24.9909 6.92828 24.9903 6.92433 24.9912C6.92412 24.9912 6.9239 24.9912 6.92368 24.9913C6.92346 24.9913 6.92325 24.9914 6.92303 24.9914C6.91801 24.9925 6.92676 24.9906 6.92174 24.9917C6.90769 24.9948 6.93319 24.9892 6.91915 24.9923C6.80846 25.0164 6.98909 24.9771 6.87945 25.0009C6.87451 25.002 6.84682 25.008 6.84293 25.0089C6.77515 25.0236 6.87631 25.0016 6.80959 25.0161L7.23486 26.9704L7.66014 28.9246C7.79761 28.8947 7.55496 28.9475 7.69348 28.9174C7.69367 28.9174 7.69385 28.9173 7.69403 28.9173C7.69421 28.9172 7.69439 28.9172 7.69457 28.9172C7.69476 28.9171 7.69494 28.9171 7.69513 28.917C7.69531 28.917 7.69549 28.917 7.69567 28.9169C7.69585 28.9169 7.69604 28.9168 7.69622 28.9168C7.69641 28.9168 7.69659 28.9167 7.69678 28.9167C7.70447 28.915 7.69018 28.9181 7.69787 28.9164C7.69806 28.9164 7.69824 28.9164 7.69843 28.9163C7.69861 28.9163 7.6988 28.9162 7.69898 28.9162C7.69917 28.9162 7.69935 28.9161 7.69954 28.9161C7.69972 28.916 7.6999 28.916 7.70009 28.916C7.70027 28.9159 7.70046 28.9159 7.70064 28.9158C7.70083 28.9158 7.70101 28.9158 7.7012 28.9157C7.70138 28.9157 7.70157 28.9156 7.70176 28.9156C7.70194 28.9156 7.70213 28.9155 7.70232 28.9155C7.72667 28.9102 7.68693 28.9188 7.71135 28.9135C7.76386 28.9021 7.6634 28.9239 7.71594 28.9125C7.72176 28.9112 7.71474 28.9128 7.72058 28.9115C7.72604 28.9103 7.71744 28.9122 7.72291 28.911C7.72764 28.91 7.72054 28.9115 7.72527 28.9105C7.78067 28.8984 7.67457 28.9215 7.73 28.9094C7.82707 28.8883 7.65212 28.9264 7.74945 28.9052C7.76147 28.9026 7.74241 28.9067 7.75444 28.9041C7.78504 28.8975 7.72886 28.9097 7.75948 28.903C7.76182 28.9025 7.76221 28.9024 7.76456 28.9019C7.88304 28.8761 7.64865 28.9271 7.76713 28.9014C7.88712 28.8753 7.6497 28.9269 7.7697 28.9008C7.87295 28.8783 7.68723 28.9188 7.79074 28.8962C7.8376 28.886 7.75464 28.9041 7.80155 28.8939C7.80232 28.8937 7.80353 28.8934 7.80429 28.8933C7.81327 28.8913 7.79806 28.8946 7.80704 28.8927C7.82038 28.8898 7.79645 28.895 7.8098 28.8921C7.93366 28.8651 7.68871 28.9184 7.81257 28.8915C7.84386 28.8847 7.96759 28.8577 8.01581 28.8472L7.59054 26.893ZM7.23486 26.9704L6.80959 25.0161C6.59768 25.0622 6.36296 25.1352 6.12519 25.2528L7.01174 27.0455L7.8983 28.8383C7.78865 28.8925 7.70269 28.9154 7.66014 28.9246L7.23486 26.9704ZM7.01174 27.0455L9.01174 27.0406L8.96584 8.61086L6.96585 8.61584L4.96586 8.62082L5.01175 27.0505L7.01174 27.0455ZM6.96585 8.61584L5.82852 6.9707C4.48033 7.90274 3.47542 9.12151 2.91423 10.6258L4.78808 11.3249L6.66194 12.0239C6.90741 11.3659 7.35435 10.7787 8.10318 10.261L6.96585 8.61584ZM4.78808 11.3249L2.91423 10.6258C2.3552 12.1243 2.30528 13.7232 2.66006 15.3535L4.61432 14.9282L6.56859 14.5029C6.34839 13.4911 6.41431 12.6877 6.66194 12.0239L4.78808 11.3249ZM4.61432 14.9282L2.66006 15.3535C2.74385 15.7386 2.84562 16.1103 2.9731 16.4529L4.84757 15.7555L6.72205 15.0582C6.67858 14.9413 6.62484 14.7615 6.56859 14.5029L4.61432 14.9282ZM4.84757 15.7555L3.0258 16.5809C3.18915 16.9414 3.39079 17.2809 3.62932 17.5968L5.2255 16.3917L6.82167 15.1866C6.76113 15.1065 6.71081 15.0218 6.66935 14.9302L4.84757 15.7555ZM5.2255 16.3917L3.66774 17.6461C3.65489 17.6301 3.61302 17.5772 3.56346 17.4938C3.52372 17.4269 3.41585 17.237 3.35521 16.9584L5.30948 16.5331L7.26374 16.1078C7.14799 15.576 6.84286 15.2114 6.78326 15.1374L5.2255 16.3917ZM5.30948 16.5331L4.2283 18.2157C3.98958 18.0623 3.54056 17.6878 3.39168 17.0037L5.34594 16.5784L7.3002 16.1531C7.14394 15.4351 6.67061 15.0304 6.39065 14.8505L5.30948 16.5331ZM5.34594 16.5784L4.92066 14.6241C4.57225 14.6999 4.33953 14.7122 4.2003 14.7039C4.06619 14.696 4.05813 14.6718 4.11185 14.7019L3.13554 16.4474L2.15922 18.1929C3.30499 18.8338 4.62135 18.7829 5.77121 18.5327L5.34594 16.5784ZM3.13554 16.4474L4.18214 14.7431C4.23335 14.7746 4.23584 14.7977 4.20591 14.7478C4.17014 14.6881 4.10372 14.5477 4.04555 14.2803L2.09129 14.7056L0.137029 15.1309C0.385337 16.272 0.939932 17.4461 2.08894 18.1517L3.13554 16.4474ZM2.09129 14.7056L4.04555 14.2803C3.95985 13.8865 3.98039 13.3808 4.24212 12.7042L2.37681 11.9826L0.511501 11.2611C0.0239627 12.5214 -0.145848 13.831 0.137029 15.1309L2.09129 14.7056ZM2.37681 11.9826L4.23198 12.7299C4.51056 12.0382 4.98188 11.3148 5.70523 10.5666L4.26734 9.17647L2.82947 7.78632C1.81524 8.83537 1.0262 9.98272 0.521639 11.2354L2.37681 11.9826ZM19.2188 21.058L17.5463 19.9613L17.544 19.9649L19.2188 21.058ZM19.8189 19.2233L21.801 19.4905L21.8123 19.4064L21.8165 19.3216L19.8189 19.2233ZM20.2381 10.7024L19.9203 8.72782L18.3202 8.98538L18.2405 10.6041L20.2381 10.7024ZM23.9345 10.1074L25.9321 10.2055L26.0532 7.74063L23.6167 8.13283L23.9345 10.1074ZM23.4912 19.1326L25.4877 19.2506L25.4883 19.2407L25.4887 19.2307L23.4912 19.1326ZM23.4844 19.5813L25.4841 19.5459L25.4838 19.5284L25.4832 19.5109L23.4844 19.5813ZM23.5207 19.9705L21.5461 20.2884L23.5207 19.9705ZM23.8716 20.6777L22.7001 22.2987L22.7898 22.3636L22.8862 22.4182L23.8716 20.6777ZM24.726 20.7509L24.4082 18.7763L24.726 20.7509ZM26.4417 18.1573L26.1238 16.1827L24.668 16.417L24.4614 17.8771L26.4417 18.1573ZM27.5198 17.9837L29.4892 18.3322L29.9794 15.5621L27.2019 16.0092L27.5198 17.9837ZM25.9635 21.8948L27.5221 23.1481L27.5288 23.1398L27.5354 23.1314L25.9635 21.8948ZM21.2542 23.2322L20.1147 24.8758L20.1315 24.8874L20.1485 24.8987L21.2542 23.2322ZM20.1908 21.5336L22.1304 21.0459L20.6342 15.0955L18.3363 20.7845L20.1908 21.5336ZM18.7941 23.6545L20.125 25.1474L20.1353 25.1381L18.7941 23.6545ZM14.6282 24.1144L13.3515 25.6538L13.3771 25.6751L13.4034 25.6954L14.6282 24.1144ZM13.5417 21.9455L11.5672 22.2633L13.5417 21.9455ZM13.4733 21.1928L15.472 21.1223L15.4718 21.1151L15.4715 21.1078L13.4733 21.1928ZM13.4785 20.2439L11.4809 20.1456L11.4808 20.1481L13.4785 20.2439ZM13.8977 11.723L13.5799 9.74839L11.9798 10.006L11.9001 11.6247L13.8977 11.723ZM17.5941 11.128L19.5917 11.2261L19.7128 8.76121L17.2763 9.1534L17.5941 11.128ZM17.1508 20.1531L19.1435 20.3237L19.1466 20.2875L19.1484 20.2513L17.1508 20.1531ZM17.1357 20.5506L15.1361 20.586L15.1386 20.7281L15.1612 20.8684L17.1357 20.5506ZM17.1895 20.8843L19.164 20.5664L17.1895 20.8843ZM17.4972 21.6511L16.002 22.9794L16.0738 23.0602L16.1539 23.1328L17.4972 21.6511ZM18.129 21.8128L18.4468 23.7874C19.5304 23.6129 20.3529 22.9798 20.8937 22.151L19.2188 21.058L17.544 19.9649C17.5214 19.9995 17.5331 19.97 17.5965 19.9262C17.6653 19.8785 17.7448 19.8489 17.8111 19.8382L18.129 21.8128ZM19.2188 21.058L20.8914 22.1547C21.4073 21.3679 21.6734 20.4369 21.801 19.4905L19.8189 19.2233L17.8368 18.9561C17.7564 19.553 17.6225 19.8452 17.5463 19.9613L19.2188 21.058ZM19.8189 19.2233L21.8165 19.3216L22.2357 10.8007L20.2381 10.7024L18.2405 10.6041L17.8213 19.125L19.8189 19.2233ZM20.2381 10.7024L20.5559 12.677L24.2524 12.082L23.9345 10.1074L23.6167 8.13283L19.9203 8.72782L20.2381 10.7024ZM23.9345 10.1074L21.9369 10.0093L21.4936 19.0344L23.4912 19.1326L25.4887 19.2307L25.9321 10.2055L23.9345 10.1074ZM23.4912 19.1326L21.4947 19.0145C21.482 19.2281 21.4782 19.4411 21.4856 19.6518L23.4844 19.5813L25.4832 19.5109C25.4807 19.4422 25.4814 19.3561 25.4877 19.2506L23.4912 19.1326ZM23.4844 19.5813L21.4847 19.6167C21.4887 19.8453 21.511 20.0699 21.5461 20.2884L23.5207 19.9705L25.4953 19.6527C25.4864 19.5973 25.4844 19.5625 25.4841 19.5459L23.4844 19.5813ZM23.5207 19.9705L21.5461 20.2884C21.6388 20.8642 21.9007 21.721 22.7001 22.2987L23.8716 20.6777L25.043 19.0568C25.2629 19.2157 25.3833 19.3981 25.4414 19.5152C25.4954 19.6241 25.5004 19.6844 25.4953 19.6527L23.5207 19.9705ZM23.8716 20.6777L22.8862 22.4182C23.6716 22.8628 24.5104 22.8113 25.0439 22.7255L24.726 20.7509L24.4082 18.7763C24.3313 18.7887 24.3363 18.7798 24.4006 18.7853C24.4654 18.7909 24.6421 18.8157 24.8569 18.9373L23.8716 20.6777ZM24.726 20.7509L25.0439 22.7255C26.1527 22.547 26.9721 21.8833 27.51 21.063L25.8375 19.9663L24.165 18.8696C24.129 18.9244 24.1291 18.906 24.1842 18.8671C24.2116 18.8478 24.247 18.8274 24.2893 18.8101C24.3317 18.7928 24.3725 18.782 24.4082 18.7763L24.726 20.7509ZM25.8375 19.9663L27.51 21.063C28.0197 20.2857 28.2898 19.3716 28.4219 18.4375L26.4417 18.1573L24.4614 17.8771C24.38 18.4521 24.2473 18.744 24.165 18.8696L25.8375 19.9663ZM26.4417 18.1573L26.7595 20.1319L27.8376 19.9583L27.5198 17.9837L27.2019 16.0092L26.1238 16.1827L26.4417 18.1573ZM27.5198 17.9837L25.5504 17.6352C25.2917 19.0972 24.8657 20.0556 24.3917 20.6581L25.9635 21.8948L27.5354 23.1314C28.5479 21.8444 29.1595 20.1953 29.4892 18.3322L27.5198 17.9837ZM25.9635 21.8948L24.405 20.6414C23.9605 21.1941 23.4514 21.4848 22.8068 21.5885L23.1246 23.5631L23.4424 25.5377C25.0909 25.2724 26.4745 24.4508 27.5221 23.1481L25.9635 21.8948ZM23.1246 23.5631L22.8068 21.5885C22.4548 21.6452 22.3659 21.5696 22.36 21.5656L21.2542 23.2322L20.1485 24.8987C21.1646 25.5729 22.3227 25.7179 23.4424 25.5377L23.1246 23.5631ZM21.2542 23.2322L22.3937 21.5885C22.379 21.5783 22.2415 21.4877 22.1304 21.0459L20.1908 21.5336L18.2512 22.0213C18.5304 23.1318 19.1019 24.1736 20.1147 24.8758L21.2542 23.2322ZM20.1908 21.5336L18.3363 20.7845C18.0558 21.4792 17.7431 21.9085 17.4529 22.1708L18.7941 23.6545L20.1353 25.1381C20.9792 24.3752 21.5977 23.3906 22.0452 22.2826L20.1908 21.5336ZM18.7941 23.6545L17.4632 22.1616C17.2173 22.3809 16.907 22.5382 16.4664 22.6091L16.7842 24.5837L17.102 26.5583C18.2358 26.3758 19.2655 25.9136 20.125 25.1473L18.7941 23.6545ZM16.7842 24.5837L16.4664 22.6091C16.0515 22.6759 15.9191 22.5844 15.8531 22.5333L14.6282 24.1144L13.4034 25.6954C14.5007 26.5455 15.8056 26.767 17.102 26.5583L16.7842 24.5837ZM14.6282 24.1144L15.905 22.5749C15.8215 22.5057 15.6229 22.2895 15.5163 21.6276L13.5417 21.9455L11.5672 22.2633C11.7747 23.5523 12.3003 24.782 13.3515 25.6538L14.6282 24.1144ZM13.5417 21.9455L15.5163 21.6276C15.4964 21.5037 15.4796 21.3375 15.472 21.1223L13.4733 21.1928L11.4745 21.2632C11.4866 21.6066 11.5155 21.9423 11.5672 22.2633L13.5417 21.9455ZM13.4733 21.1928L15.4715 21.1078C15.4617 20.879 15.4626 20.6234 15.4762 20.3396L13.4785 20.2439L11.4808 20.1481C11.4622 20.5367 11.4596 20.9137 11.4751 21.2777L13.4733 21.1928ZM13.4785 20.2439L15.4761 20.3422L15.8953 11.8212L13.8977 11.723L11.9001 11.6247L11.4809 20.1456L13.4785 20.2439ZM13.8977 11.723L14.2156 13.6976L17.912 13.1026L17.5941 11.128L17.2763 9.1534L13.5799 9.74839L13.8977 11.723ZM17.5941 11.128L15.5966 11.0298L15.1532 20.055L17.1508 20.1531L19.1484 20.2513L19.5917 11.2261L17.5941 11.128ZM17.1508 20.1531L15.1581 19.9826C15.1409 20.1825 15.1325 20.3845 15.1361 20.586L17.1357 20.5506L19.1354 20.5152C19.1347 20.4715 19.1362 20.4086 19.1435 20.3237L17.1508 20.1531ZM17.1357 20.5506L15.1612 20.8684C15.1749 20.9537 15.1726 20.9393 15.187 21.0288C15.198 21.0972 15.2032 21.1295 15.2149 21.2021L17.1895 20.8843L19.164 20.5664C19.1317 20.3655 19.1678 20.5898 19.1362 20.3932C19.1361 20.3926 19.1295 20.3521 19.1295 20.3519C19.1221 20.3058 19.1303 20.3572 19.123 20.3114C19.1159 20.2677 19.1236 20.3151 19.1166 20.2716C19.0992 20.1636 19.1277 20.3405 19.1103 20.2327L17.1357 20.5506ZM17.1895 20.8843L15.2149 21.2021C15.3005 21.7343 15.4982 22.4122 16.002 22.9794L17.4972 21.6511L18.9925 20.3229C19.0997 20.4436 19.1475 20.547 19.1638 20.5877C19.1797 20.6274 19.1738 20.627 19.164 20.5664L17.1895 20.8843ZM17.4972 21.6511L16.1539 23.1328C16.8482 23.7623 17.7053 23.9067 18.4468 23.7874L18.129 21.8128L17.8111 19.8382C17.9015 19.8236 18.067 19.8127 18.2743 19.8658C18.4913 19.9213 18.6869 20.0301 18.8406 20.1694L17.4972 21.6511ZM35.4899 10.943L37.4782 10.7268L35.4899 10.943ZM35.2539 12.381L33.5336 11.361L33.5293 11.3683L33.525 11.3756L35.2539 12.381ZM34.3251 12.9789L34.1089 10.9906L34.3251 12.9789ZM33.8773 12.9491L33.4536 14.9037L33.4536 14.9037L33.8773 12.9491ZM33.3867 12.7671L31.4491 12.2714L31.0558 13.8089L32.4637 14.5414L33.3867 12.7671ZM33.5322 11.9405L31.5402 11.7626L31.5402 11.7626L33.5322 11.9405ZM33.5311 11.2084L31.5428 11.4246L33.5311 11.2084ZM33.2658 10.4526L31.7045 11.7025L31.732 11.7368L31.761 11.7699L33.2658 10.4526ZM32.6921 10.2273L32.9083 12.2156L32.6921 10.2273ZM30.7559 13.1055L32.6748 13.6693L32.6767 13.6626L30.7559 13.1055ZM30.2099 18.1863L28.2217 18.4025L30.2099 18.1863ZM30.7803 19.8242L29.3537 21.2259L29.3759 21.2485L29.3988 21.2703L30.7803 19.8242ZM34.4709 19.3706L35.6039 21.0187L35.6113 21.0137L35.6186 21.0086L34.4709 19.3706ZM36.5982 17.047L36.382 15.0587L35.4827 15.1565L34.9623 15.8964L36.5982 17.047ZM37.477 16.9514L39.2827 17.8115L40.824 14.5757L37.2608 14.9632L37.477 16.9514ZM34.6137 20.9243L35.8913 22.463L35.8991 22.4565L35.9069 22.45L34.6137 20.9243ZM27.7523 21.8011L26.4796 23.3439L26.4894 23.352L26.4993 23.3599L27.7523 21.8011ZM26.5091 15.6595L24.5366 15.3293L24.5342 15.3437L24.532 15.358L26.5091 15.6595ZM27.4552 12.5752L29.259 13.4391L29.2611 13.4348L27.4552 12.5752ZM29.4769 10.0015L30.6713 11.6057L30.6807 11.5987L29.4769 10.0015ZM32.3622 8.87704L32.146 6.88876L32.3622 8.87704ZM34.575 9.26411L33.4452 10.9144L33.4625 10.9263L33.48 10.9377L34.575 9.26411ZM35.4899 10.943L33.5016 11.1592C33.5179 11.3092 33.5096 11.3902 33.5051 11.4181C33.5012 11.4415 33.5026 11.4132 33.5336 11.361L35.2539 12.381L36.9743 13.401C37.4832 12.5426 37.572 11.5902 37.4782 10.7268L35.4899 10.943ZM35.2539 12.381L33.525 11.3756C33.5633 11.3098 33.6455 11.2038 33.7849 11.114C33.9233 11.0249 34.0474 10.9973 34.1089 10.9906L34.3251 12.9789L34.5413 14.9672C35.574 14.8549 36.4514 14.3003 36.9829 13.3864L35.2539 12.381ZM34.3251 12.9789L34.1089 10.9906C34.2203 10.9785 34.2895 10.992 34.3009 10.9945L33.8773 12.9491L33.4536 14.9037C33.7865 14.9759 34.1543 15.0093 34.5413 14.9672L34.3251 12.9789ZM33.8773 12.9491L34.3009 10.9945C34.3363 11.0022 34.34 11.0085 34.3097 10.9928L33.3867 12.7671L32.4637 14.5414C32.7661 14.6987 33.0969 14.8264 33.4536 14.9037L33.8773 12.9491ZM33.3867 12.7671L35.3243 13.2628C35.4214 12.8835 35.4901 12.5013 35.5243 12.1184L33.5322 11.9405L31.5402 11.7626C31.5272 11.9079 31.4989 12.0768 31.4491 12.2714L33.3867 12.7671ZM33.5322 11.9405L35.5243 12.1184C35.5576 11.7455 35.5602 11.3676 35.5194 10.9921L33.5311 11.2084L31.5428 11.4246C31.5507 11.4971 31.554 11.6073 31.5402 11.7626L33.5322 11.9405ZM33.5311 11.2084L35.5194 10.9921C35.4633 10.4765 35.3035 9.74391 34.7707 9.13527L33.2658 10.4526L31.761 11.7699C31.6249 11.6145 31.5685 11.4774 31.5495 11.4233C31.5306 11.3695 31.536 11.3619 31.5428 11.4246L33.5311 11.2084ZM33.2658 10.4526L34.8272 9.20274C34.2222 8.44694 33.3369 8.1454 32.4759 8.23901L32.6921 10.2273L32.9083 12.2156C32.7657 12.2311 32.5407 12.2258 32.2854 12.1255C32.0237 12.0228 31.8299 11.8592 31.7045 11.7025L33.2658 10.4526ZM32.6921 10.2273L32.4759 8.23901C31.2616 8.37105 30.46 9.17879 29.98 9.89232C29.4909 10.6193 29.1266 11.5433 28.8351 12.5483L30.7559 13.1055L32.6767 13.6626C32.9178 12.8313 33.1425 12.3575 33.2989 12.125C33.4642 11.8792 33.3644 12.166 32.9083 12.2156L32.6921 10.2273ZM30.7559 13.1055L28.837 12.5417C28.2429 14.5637 28.0175 16.5251 28.2217 18.4025L30.2099 18.1863L32.1982 17.9701C32.0613 16.7112 32.1999 15.2855 32.6748 13.6693L30.7559 13.1055ZM30.2099 18.1863L28.2217 18.4025C28.3187 19.295 28.5653 20.4235 29.3537 21.2259L30.7803 19.8242L32.2069 18.4225C32.3299 18.5476 32.3384 18.6257 32.3059 18.5325C32.2754 18.4448 32.2306 18.2682 32.1982 17.9701L30.2099 18.1863ZM30.7803 19.8242L29.3988 21.2703C30.3484 22.1776 31.6026 22.2435 32.5233 22.1434L32.3071 20.1551L32.0909 18.1668C31.9897 18.1778 31.917 18.1797 31.8693 18.1784C31.8213 18.1771 31.807 18.1727 31.8191 18.1754C31.832 18.1782 31.8769 18.1893 31.9411 18.2212C32.0073 18.2541 32.0853 18.3049 32.1619 18.3781L30.7803 19.8242ZM32.3071 20.1551L32.5233 22.1434C33.6415 22.0218 34.6818 21.6526 35.6039 21.0187L34.4709 19.3706L33.3379 17.7225C32.9947 17.9584 32.5924 18.1123 32.0909 18.1668L32.3071 20.1551ZM34.4709 19.3706L35.6186 21.0086C36.5433 20.3607 37.4097 19.3698 38.2341 18.1976L36.5982 17.047L34.9623 15.8964C34.2465 16.9143 33.6947 17.4724 33.3233 17.7326L34.4709 19.3706ZM36.5982 17.047L36.8144 19.0353L37.6932 18.9397L37.477 16.9514L37.2608 14.9632L36.382 15.0587L36.5982 17.047ZM37.477 16.9514L35.6714 16.0914C34.9301 17.6478 34.1292 18.7132 33.3206 19.3985L34.6137 20.9243L35.9069 22.45C37.2694 21.2951 38.3774 19.712 39.2827 17.8115L37.477 16.9514ZM34.6137 20.9243L33.3362 19.3855C32.5486 20.0394 31.6755 20.4089 30.6727 20.5179L30.8889 22.5062L31.1051 24.4945C32.8939 24.3 34.504 23.6148 35.8913 22.463L34.6137 20.9243ZM30.8889 22.5062L30.6727 20.5179C29.6779 20.6261 29.2248 20.4187 29.0054 20.2423L27.7523 21.8011L26.4993 23.3599C27.8083 24.4122 29.4462 24.6748 31.1051 24.4945L30.8889 22.5062ZM27.7523 21.8011L29.025 20.2583C28.8218 20.0907 28.5132 19.6777 28.3981 18.6187L26.4098 18.8349L24.4215 19.0511C24.6024 20.7147 25.1889 22.2792 26.4796 23.3439L27.7523 21.8011ZM26.4098 18.8349L28.3981 18.6187C28.3127 17.8339 28.3353 16.9513 28.4863 15.961L26.5091 15.6595L24.532 15.358C24.3369 16.6371 24.2932 17.8714 24.4215 19.0511L26.4098 18.8349ZM26.5091 15.6595L28.4817 15.9897C28.6449 15.0145 28.9092 14.1693 29.259 13.4391L27.4552 12.5752L25.6515 11.7112C25.1202 12.8203 24.7538 14.0314 24.5366 15.3293L26.5091 15.6595ZM27.4552 12.5752L29.2611 13.4348C29.6728 12.5697 30.1558 11.9896 30.6713 11.6057L29.4769 10.0015L28.2824 8.3974C27.1527 9.23856 26.2879 10.3741 25.6494 11.7156L27.4552 12.5752ZM29.4769 10.0015L30.6807 11.5987C31.2187 11.1931 31.836 10.946 32.5784 10.8653L32.3622 8.87704L32.146 6.88876C30.7172 7.04413 29.4109 7.54673 28.273 8.40442L29.4769 10.0015ZM32.3622 8.87704L32.5784 10.8653C33.2775 10.7893 33.4656 10.9284 33.4452 10.9144L34.575 9.26411L35.7048 7.61379C34.6295 6.87763 33.3424 6.75867 32.146 6.88876L32.3622 8.87704ZM34.575 9.26411L33.48 10.9377C33.4761 10.9352 33.4663 10.9278 33.4554 10.916C33.4446 10.9042 33.4405 10.8965 33.4417 10.8987C33.4446 10.904 33.4815 10.9747 33.5016 11.1592L35.4899 10.943L37.4782 10.7268C37.3463 9.51382 36.8154 8.33983 35.67 7.59048L34.575 9.26411ZM42.7063 3.13506L44.6825 3.44283L45.1198 0.634963L42.3291 1.17096L42.7063 3.13506ZM41.2664 12.381L39.2902 12.0733L38.4388 17.54L42.589 13.8813L41.2664 12.381ZM46.0577 8.15709L45.9469 6.16017L45.255 6.19856L44.7351 6.65684L46.0577 8.15709ZM48.6278 8.01448L49.8584 9.59104L54.8893 5.66396L48.5169 6.01756L48.6278 8.01448ZM43.636 11.911L42.4053 10.3345L44.0281 13.8722L43.636 11.911ZM44.1508 11.8043L43.7588 9.84316L43.7359 9.84772L43.7132 9.8528L44.1508 11.8043ZM44.4869 11.7597L44.5977 13.7566L44.4869 11.7597ZM46.6098 12.4751L45.2045 13.8982L45.2165 13.9101L45.2287 13.9218L46.6098 12.4751ZM47.511 14.6385L45.5141 14.7493L47.511 14.6385ZM47.5139 15.1592L49.5108 15.2696L49.5114 15.2586L49.5119 15.2476L47.5139 15.1592ZM47.4619 15.6308L45.4885 15.3057L45.4878 15.3099L47.4619 15.6308ZM47.2484 16.9446L45.2743 16.6238L45.2661 16.6745L45.2604 16.7256L47.2484 16.9446ZM47.1734 17.4696L45.2092 17.0928L45.1864 17.2114L45.1781 17.3318L47.1734 17.4696ZM47.1647 17.7825L45.1678 17.8934L47.1647 17.7825ZM47.4387 18.4965L46.105 19.9869L46.1442 20.0219L46.1852 20.0549L47.4387 18.4965ZM50.2843 16.2814L50.1735 14.2845L48.8535 14.3577L48.4037 15.6008L50.2843 16.2814ZM51.3746 16.2209L53.3024 16.7535L54.044 14.0697L51.2638 14.224L51.3746 16.2209ZM49.5759 19.9403L51.0663 21.274L51.0735 21.2659L51.0806 21.2579L49.5759 19.9403ZM44.3825 20.6711L43.0975 22.2038L43.1222 22.2244L43.1475 22.2443L44.3825 20.6711ZM43.4293 18.5106L45.4262 18.3998L43.4293 18.5106ZM43.4192 17.8602L41.4287 17.6661L41.4213 17.7416L41.4197 17.8175L43.4192 17.8602ZM43.5101 17.1521L45.486 17.4621L45.4873 17.4535L45.4886 17.4448L43.5101 17.1521ZM43.6616 16.1281L41.6882 15.8031L41.6856 15.8192L41.6832 15.8354L43.6616 16.1281ZM43.7136 15.6565L45.7105 15.7669L45.7106 15.7669L43.7136 15.6565ZM43.7122 15.1618L41.7153 15.2726L43.7122 15.1618ZM42.7085 13.9676L42.5977 11.9707L42.7085 13.9676ZM41.8648 14.2488L42.8153 16.0084L42.8363 15.9971L42.8569 15.9853L41.8648 14.2488ZM40.8407 15.0347L39.4772 13.5716L38.969 14.0451L38.8638 14.7317L40.8407 15.0347ZM39.8466 21.5217L39.9574 23.5187L41.5777 23.4288L41.8235 21.8247L39.8466 21.5217ZM36.1084 21.7292L34.1322 21.4211L33.7515 23.863L36.2192 23.7261L36.1084 21.7292ZM38.893 3.86746L38.5158 1.90336L37.1337 2.16881L36.9169 3.55938L38.893 3.86746ZM42.7063 3.13506L40.7301 2.8273L39.2902 12.0733L41.2664 12.381L43.2425 12.6888L44.6825 3.44283L42.7063 3.13506ZM41.2664 12.381L42.589 13.8813L47.3803 9.65735L46.0577 8.15709L44.7351 6.65684L39.9438 10.8808L41.2664 12.381ZM46.0577 8.15709L46.1685 10.154L48.7386 10.0114L48.6278 8.01448L48.5169 6.01756L45.9469 6.16017L46.0577 8.15709ZM48.6278 8.01448L47.3971 6.43793L42.4053 10.3345L43.636 11.911L44.8666 13.4876L49.8584 9.59104L48.6278 8.01448ZM43.636 11.911L44.0281 13.8722C44.2691 13.824 44.4608 13.7845 44.5884 13.7559L44.1508 11.8043L43.7132 9.8528C43.6352 9.87032 43.4836 9.90192 43.2439 9.94985L43.636 11.911ZM44.1508 11.8043L44.5429 13.7655C44.5862 13.7569 44.6033 13.7563 44.5977 13.7566L44.4869 11.7597L44.3761 9.76273C44.1628 9.77456 43.9558 9.80375 43.7588 9.84316L44.1508 11.8043ZM44.4869 11.7597L44.5977 13.7566C45.0281 13.7327 45.1467 13.8412 45.2045 13.8982L46.6098 12.4751L48.0151 11.0521C47.0076 10.0572 45.7109 9.68866 44.3761 9.76273L44.4869 11.7597ZM46.6098 12.4751L45.2287 13.9218C45.3375 14.0256 45.4852 14.2277 45.5141 14.7493L47.511 14.6385L49.508 14.5277C49.4351 13.2149 48.982 11.9747 47.9908 11.0285L46.6098 12.4751ZM47.511 14.6385L45.5141 14.7493C45.52 14.8557 45.5206 14.9628 45.5158 15.0707L47.5139 15.1592L49.5119 15.2476C49.5226 15.0075 49.5213 14.7675 49.508 14.5277L47.511 14.6385ZM47.5139 15.1592L45.5169 15.0488C45.5123 15.1323 45.503 15.2178 45.4885 15.3057L47.4619 15.6308L49.4353 15.9558C49.4728 15.7283 49.4981 15.4995 49.5108 15.2696L47.5139 15.1592ZM47.4619 15.6308L45.4878 15.3099L45.2743 16.6238L47.2484 16.9446L49.2225 17.2655L49.436 15.9516L47.4619 15.6308ZM47.2484 16.9446L45.2604 16.7256C45.2407 16.9046 45.2226 17.0228 45.2092 17.0928L47.1734 17.4696L49.1376 17.8464C49.178 17.6356 49.2099 17.4038 49.2364 17.1636L47.2484 16.9446ZM47.1734 17.4696L45.1781 17.3318C45.1673 17.4887 45.1568 17.6948 45.1678 17.8934L47.1647 17.7825L49.1616 17.6717C49.1629 17.6947 49.163 17.7093 49.1631 17.7131C49.1631 17.7174 49.163 17.716 49.1632 17.7078C49.1637 17.6905 49.1651 17.6581 49.1686 17.6073L47.1734 17.4696ZM47.1647 17.7825L45.1678 17.8934C45.2011 18.4934 45.3871 19.3444 46.105 19.9869L47.4387 18.4965L48.7724 17.0061C49.1615 17.3542 49.1648 17.7294 49.1616 17.6717L47.1647 17.7825ZM47.4387 18.4965L46.1852 20.0549C46.9022 20.6317 47.7362 20.7174 48.3412 20.6838L48.2304 18.6869L48.1196 16.69C48.0324 16.6948 48.3385 16.6536 48.6922 16.938L47.4387 18.4965ZM48.2304 18.6869L48.3412 20.6838C49.2783 20.6318 50.1237 20.2455 50.7739 19.5593L49.3222 18.1836L47.8705 16.8079C47.8854 16.7923 47.9257 16.7567 47.9906 16.7267C48.0553 16.6969 48.1052 16.6908 48.1196 16.69L48.2304 18.6869ZM49.3222 18.1836L50.7739 19.5593C51.3846 18.9149 51.8194 17.9169 52.165 16.962L50.2843 16.2814L48.4037 15.6008C48.2474 16.0327 48.1115 16.3501 47.9994 16.5718C47.8773 16.8133 47.8262 16.8547 47.8705 16.8079L49.3222 18.1836ZM50.2843 16.2814L50.3951 18.2783L51.4855 18.2178L51.3746 16.2209L51.2638 14.224L50.1735 14.2845L50.2843 16.2814ZM51.3746 16.2209L49.4469 15.6883C49.0438 17.1471 48.5524 18.0733 48.0713 18.6227L49.5759 19.9403L51.0806 21.2579C52.1015 20.0921 52.8092 18.5387 53.3024 16.7535L51.3746 16.2209ZM49.5759 19.9403L48.0856 18.6066C47.6613 19.0807 47.242 19.2645 46.7537 19.2916L46.8645 21.2886L46.9753 23.2855C48.5984 23.1954 49.9867 22.4804 51.0663 21.274L49.5759 19.9403ZM46.8645 21.2886L46.7537 19.2916C45.9948 19.3337 45.7081 19.1692 45.6174 19.098L44.3825 20.6711L43.1475 22.2443C44.2547 23.1135 45.6227 23.3605 46.9753 23.2855L46.8645 21.2886ZM44.3825 20.6711L45.6674 19.1385C45.6109 19.0911 45.4567 18.9491 45.4262 18.3998L43.4293 18.5106L41.4324 18.6214C41.5075 19.9759 41.9888 21.2742 43.0975 22.2038L44.3825 20.6711ZM43.4293 18.5106L45.4262 18.3998C45.4178 18.2474 45.415 18.082 45.4188 17.9029L43.4192 17.8602L41.4197 17.8175C41.4139 18.0903 41.4178 18.3585 41.4324 18.6214L43.4293 18.5106ZM43.4192 17.8602L45.4098 18.0543C45.4278 17.8694 45.453 17.6721 45.486 17.4621L43.5101 17.1521L41.5343 16.842C41.4903 17.1223 41.4549 17.3971 41.4287 17.6661L43.4192 17.8602ZM43.5101 17.1521L45.4886 17.4448L45.6401 16.4208L43.6616 16.1281L41.6832 15.8354L41.5317 16.8593L43.5101 17.1521ZM43.6616 16.1281L45.6351 16.4531C45.6725 16.2257 45.6978 15.9968 45.7105 15.7669L43.7136 15.6565L41.7167 15.5461C41.712 15.6296 41.7027 15.7152 41.6882 15.8031L43.6616 16.1281ZM43.7136 15.6565L45.7106 15.7669C45.7237 15.5293 45.7224 15.2902 45.7091 15.051L43.7122 15.1618L41.7153 15.2726C41.7212 15.3795 41.7208 15.4702 41.7167 15.5461L43.7136 15.6565ZM43.7122 15.1618L45.7091 15.051C45.6754 14.4436 45.5262 13.6297 44.9577 12.9534L43.4267 14.2402L41.8956 15.527C41.7723 15.3803 41.7263 15.2542 41.7131 15.2117C41.7006 15.1713 41.7103 15.1832 41.7153 15.2726L43.7122 15.1618ZM43.4267 14.2402L44.9577 12.9534C44.3023 12.1735 43.3964 11.9263 42.5977 11.9707L42.7085 13.9676L42.8193 15.9645C42.7553 15.9681 42.6044 15.9657 42.4119 15.8926C42.2075 15.815 42.028 15.6845 41.8956 15.527L43.4267 14.2402ZM42.7085 13.9676L42.5977 11.9707C41.9408 12.0071 41.3572 12.2353 40.8726 12.5122L41.8648 14.2488L42.8569 15.9853C42.9135 15.953 42.9391 15.9448 42.9352 15.9461C42.9303 15.9477 42.8898 15.9606 42.8193 15.9645L42.7085 13.9676ZM41.8648 14.2488L40.9142 12.4891C40.4119 12.7604 39.9273 13.1521 39.4772 13.5716L40.8407 15.0347L42.2043 16.4978C42.5464 16.179 42.7445 16.0467 42.8153 16.0084L41.8648 14.2488ZM40.8407 15.0347L38.8638 14.7317L37.8697 21.2188L39.8466 21.5217L41.8235 21.8247L42.8177 15.3377L40.8407 15.0347ZM39.8466 21.5217L39.7358 19.5248L35.9976 19.7322L36.1084 21.7292L36.2192 23.7261L39.9574 23.5187L39.8466 21.5217ZM36.1084 21.7292L38.0845 22.0373L40.8692 4.17554L38.893 3.86746L36.9169 3.55938L34.1322 21.4211L36.1084 21.7292ZM38.893 3.86746L39.2703 5.83156L43.0836 5.09916L42.7063 3.13506L42.3291 1.17096L38.5158 1.90336L38.893 3.86746ZM54.8715 18.5645L54.8708 20.5645L54.8715 18.5645ZM56.0417 18.0189L57.4895 19.3987L57.4895 19.3987L56.0417 18.0189ZM56.9002 16.4332L58.8021 17.052L58.8341 16.9536L58.8558 16.8525L56.9002 16.4332ZM58.7231 7.93177L58.7238 5.93177L57.1066 5.93122L56.7675 7.51246L58.7231 7.93177ZM62.4671 7.93303L64.4229 8.35102L64.9395 5.93386L62.4678 5.93303L62.4671 7.93303ZM59.889 19.9962L57.9332 19.5782L57.1815 23.0952L60.5658 21.8782L59.889 19.9962ZM61.9174 18.6968L60.4156 17.3761L60.4127 17.3793L61.9174 18.6968ZM63.1663 16.2793L63.1669 14.2793L61.7024 14.2788L61.2598 15.6748L63.1663 16.2793ZM64.2583 16.2796L66.1723 16.8596L66.9538 14.2805L64.2589 14.2796L64.2583 16.2796ZM62.5412 19.4511L61.0806 18.0848L61.0726 18.0934L61.0647 18.102L62.5412 19.4511ZM59.6546 21.1401L59.1243 19.2117L57.9464 19.5356L57.6968 20.7315L59.6546 21.1401ZM59.264 23.012L61.2195 23.4317L61.2218 23.4205L59.264 23.012ZM57.6249 26.3134L59.0061 27.7598L57.6249 26.3134ZM54.5825 27.4304L54.5818 29.4304L54.5825 27.4304ZM52.4507 26.7537L51.1403 28.2646L51.1526 28.2752L51.165 28.2856L52.4507 26.7537ZM52.7121 22.6457L51.3727 21.1605L51.3537 21.1776L51.3351 21.1953L52.7121 22.6457ZM55.9107 21.0348L56.4933 22.9481L57.6094 22.6082L57.8629 21.4693L55.9107 21.0348ZM56.2231 19.6309L58.1754 20.0654L59.8416 12.5792L54.7317 18.2984L56.2231 19.6309ZM54.7928 20.7224L53.9476 18.9098L53.9357 18.9153L53.9239 18.921L54.7928 20.7224ZM51.0489 20.2792L49.5433 21.5957L49.5652 21.6207L49.5879 21.645L51.0489 20.2792ZM50.374 17.2109L52.3584 17.4597L52.3593 17.4525L52.3602 17.4453L50.374 17.2109ZM50.5303 16.275L48.5738 15.8599L48.5733 15.8623L50.5303 16.275ZM52.3011 7.9296L52.3018 5.9296L50.681 5.92905L50.3446 7.51446L52.3011 7.9296ZM56.0451 7.93086L58.0015 8.34586L58.5136 5.9317L56.0458 5.93086L56.0451 7.93086ZM54.1701 16.7702L52.2136 16.3552L52.2046 16.3978L52.1974 16.4408L54.1701 16.7702ZM54.118 17.1082L56.0907 17.4377L56.0945 17.4147L56.0978 17.3917L54.118 17.1082ZM54.0919 17.4202L56.0919 17.4209L54.0919 17.4202ZM54.2736 18.2783L52.5457 19.2854L52.5965 19.3725L52.6557 19.4541L54.2736 18.2783ZM55.6502 22.3347L57.6086 22.7406L58.3483 19.1712L54.9404 20.4649L55.6502 22.3347ZM53.7259 23.3481L52.446 21.8112L52.4275 21.8266L52.4094 21.8425L53.7259 23.3481ZM53.1015 24.5439L55.1015 24.5445L53.1015 24.5439ZM53.3613 25.142L54.776 23.7282L54.776 23.7282L53.3613 25.142ZM54.8434 24.7785L53.1797 23.6685L53.1797 23.6685L54.8434 24.7785ZM55.494 23.0887L57.4473 23.5182L57.4499 23.5064L57.4523 23.4946L55.494 23.0887ZM54.8715 18.5645L54.8708 20.5645C55.9401 20.5648 56.8309 20.0897 57.4895 19.3987L56.0417 18.0189L54.5939 16.6391C54.5642 16.6702 54.5782 16.6461 54.6439 16.6155C54.7156 16.5821 54.7987 16.5644 54.8722 16.5645L54.8715 18.5645ZM56.0417 18.0189L57.4895 19.3987C58.1141 18.7433 58.5225 17.9112 58.8021 17.052L56.9002 16.4332L54.9984 15.8143C54.8268 16.3416 54.6628 16.5667 54.5939 16.6391L56.0417 18.0189ZM56.9002 16.4332L58.8558 16.8525L60.6786 8.35108L58.7231 7.93177L56.7675 7.51246L54.9447 16.0138L56.9002 16.4332ZM58.7231 7.93177L58.7224 9.93177L62.4664 9.93303L62.4671 7.93303L62.4678 5.93303L58.7238 5.93177L58.7231 7.93177ZM62.4671 7.93303L60.5112 7.51504L57.9332 19.5782L59.889 19.9962L61.8448 20.4142L64.4229 8.35102L62.4671 7.93303ZM59.889 19.9962L60.5658 21.8782C61.6734 21.4798 62.6638 20.8804 63.4222 20.0144L61.9174 18.6968L60.4127 17.3793C60.2 17.6223 59.8381 17.8891 59.2122 18.1142L59.889 19.9962ZM61.9174 18.6968L63.4193 20.0176C64.1665 19.168 64.6928 18.0822 65.0727 16.8837L63.1663 16.2793L61.2598 15.6748C60.9804 16.5561 60.6741 17.0821 60.4156 17.3761L61.9174 18.6968ZM63.1663 16.2793L63.1656 18.2793L64.2576 18.2796L64.2583 16.2796L64.2589 14.2796L63.1669 14.2793L63.1663 16.2793ZM64.2583 16.2796L62.3442 15.6997C62.0114 16.798 61.5694 17.5623 61.0806 18.0848L62.5412 19.4511L64.0018 20.8173C65.0042 19.7457 65.7069 18.3957 66.1723 16.8596L64.2583 16.2796ZM62.5412 19.4511L61.0647 18.102C60.627 18.581 60.0121 18.9675 59.1243 19.2117L59.6546 21.1401L60.1849 23.0685C61.6894 22.6548 62.9988 21.9153 64.0177 20.8001L62.5412 19.4511ZM59.6546 21.1401L57.6968 20.7315L57.3062 22.6034L59.264 23.012L61.2218 23.4205L61.6125 21.5487L59.6546 21.1401ZM59.264 23.012L57.3085 22.5922C57.0492 23.8007 56.6427 24.4859 56.2436 24.867L57.6249 26.3134L59.0061 27.7598C60.1675 26.6508 60.8538 25.135 61.2195 23.4317L59.264 23.012ZM57.6249 26.3134L56.2436 24.867C55.894 25.2009 55.4032 25.4306 54.5832 25.4304L54.5825 27.4304L54.5818 29.4304C56.2578 29.4309 57.7953 28.9161 59.0061 27.7598L57.6249 26.3134ZM54.5825 27.4304L54.5832 25.4304C54.0435 25.4302 53.8278 25.2983 53.7365 25.2217L52.4507 26.7537L51.165 28.2856C52.148 29.1107 53.3535 29.43 54.5818 29.4304L54.5825 27.4304ZM52.4507 26.7537L53.7611 25.2427C53.7251 25.2115 53.7158 25.1934 53.7086 25.1761C53.6986 25.1525 53.6713 25.0749 53.6714 24.9081L51.6713 24.9074L49.6713 24.9067C49.6709 26.1804 50.121 27.3806 51.1403 28.2646L52.4507 26.7537ZM51.6713 24.9074L53.6714 24.9081C53.6714 24.6786 53.7381 24.4295 54.0891 24.0962L52.7121 22.6457L51.3351 21.1953C50.2991 22.1788 49.6718 23.4375 49.6713 24.9067L51.6713 24.9074ZM52.7121 22.6457L54.0515 24.131C54.4575 23.7649 55.213 23.3379 56.4933 22.9481L55.9107 21.0348L55.3281 19.1216C53.7653 19.5974 52.3885 20.2444 51.3727 21.1605L52.7121 22.6457ZM55.9107 21.0348L57.8629 21.4693L58.1754 20.0654L56.2231 19.6309L54.2709 19.1964L53.9584 20.6003L55.9107 21.0348ZM56.2231 19.6309L54.7317 18.2984C54.4548 18.6084 54.1912 18.7962 53.9476 18.9098L54.7928 20.7224L55.6379 22.5351C56.4345 22.1637 57.1245 21.6239 57.7146 20.9635L56.2231 19.6309ZM54.7928 20.7224L53.9239 18.921C53.7228 19.018 53.462 19.086 53.1033 19.0859L53.1026 21.0859L53.102 23.0859C53.9913 23.0862 54.8572 22.9119 55.6616 22.5238L54.7928 20.7224ZM53.1026 21.0859L53.1033 19.0859C52.6831 19.0857 52.5669 18.9744 52.5099 18.9134L51.0489 20.2792L49.5879 21.645C50.5359 22.659 51.7889 23.0854 53.102 23.0859L53.1026 21.0859ZM51.0489 20.2792L52.5545 18.9627C52.4832 18.8811 52.3215 18.636 52.3217 17.9656L50.3217 17.9649L48.3217 17.9643C48.3212 19.2699 48.6444 20.5676 49.5433 21.5957L51.0489 20.2792ZM50.3217 17.9649L52.3217 17.9656C52.3217 17.8401 52.3316 17.6734 52.3584 17.4597L50.374 17.2109L48.3895 16.9622C48.3467 17.3032 48.3218 17.6391 48.3217 17.9643L50.3217 17.9649ZM50.374 17.2109L52.3602 17.4453C52.387 17.2178 52.4286 16.9657 52.4872 16.6877L50.5303 16.275L48.5733 15.8623C48.493 16.2429 48.4304 16.6148 48.3877 16.9766L50.374 17.2109ZM50.5303 16.275L52.4867 16.6901L54.2575 8.34474L52.3011 7.9296L50.3446 7.51446L48.5738 15.8599L50.5303 16.275ZM52.3011 7.9296L52.3004 9.9296L56.0444 9.93086L56.0451 7.93086L56.0458 5.93086L52.3018 5.9296L52.3011 7.9296ZM56.0451 7.93086L54.0886 7.51586L52.2136 16.3552L54.1701 16.7702L56.1266 17.1852L58.0015 8.34586L56.0451 7.93086ZM54.1701 16.7702L52.1974 16.4408C52.1771 16.5623 52.1574 16.6904 52.1382 16.8247L54.118 17.1082L56.0978 17.3917C56.1133 17.2833 56.1283 17.1862 56.1428 17.0997L54.1701 16.7702ZM54.118 17.1082L52.1453 16.7787C52.11 16.9899 52.0919 17.2039 52.0919 17.4195L54.0919 17.4202L56.0919 17.4209C56.0919 17.4286 56.0912 17.4345 56.0907 17.4377L54.118 17.1082ZM54.0919 17.4202L52.0919 17.4195C52.0917 17.9703 52.1774 18.6536 52.5457 19.2854L54.2736 18.2783L56.0015 17.2711C56.0683 17.3858 56.0891 17.4709 56.0938 17.4934C56.0984 17.5152 56.0919 17.4958 56.0919 17.4209L54.0919 17.4202ZM54.2736 18.2783L52.6557 19.4541C53.2132 20.2212 54.0473 20.5642 54.8708 20.5645L54.8715 18.5645L54.8722 16.5645C54.9884 16.5645 55.1773 16.5868 55.3905 16.6889C55.6106 16.7942 55.7789 16.9476 55.8915 17.1025L54.2736 18.2783ZM55.6502 22.3347L54.9404 20.4649C53.992 20.825 53.1116 21.2569 52.446 21.8112L53.7259 23.3481L55.0057 24.885C55.1724 24.7462 55.5749 24.5026 56.36 24.2045L55.6502 22.3347ZM53.7259 23.3481L52.4094 21.8425C51.6874 22.4738 51.1019 23.3822 51.1015 24.5432L53.1015 24.5439L55.1015 24.5445C55.1015 24.598 55.0948 24.6548 55.0807 24.7111C55.0667 24.7671 55.0478 24.8125 55.0305 24.8457C54.9968 24.9103 54.9796 24.9085 55.0424 24.8537L53.7259 23.3481ZM53.1015 24.5439L51.1015 24.5432C51.1012 25.3482 51.4347 26.0434 51.9466 26.5557L53.3613 25.142L54.776 23.7282C54.8442 23.7965 54.9321 23.9076 55.0008 24.0656C55.0708 24.2268 55.1015 24.3931 55.1015 24.5445L53.1015 24.5439ZM53.3613 25.142L51.9466 26.5557C52.4905 27.1 53.2054 27.4019 53.9845 27.4022L53.9852 25.4022L53.9859 23.4022C54.1081 23.4022 54.2591 23.4253 54.4171 23.4912C54.5746 23.5569 54.6943 23.6465 54.776 23.7282L53.3613 25.142ZM53.9852 25.4022L53.9845 27.4022C55.3089 27.4026 56.118 26.4717 56.5071 25.8884L54.8434 24.7785L53.1797 23.6685C53.1222 23.7546 53.1352 23.7082 53.2449 23.6284C53.3737 23.5349 53.6314 23.402 53.9859 23.4022L53.9852 25.4022ZM54.8434 24.7785L56.5071 25.8884C56.9702 25.1943 57.2599 24.3707 57.4473 23.5182L55.494 23.0887L53.5406 22.6592C53.4156 23.2279 53.2715 23.5308 53.1797 23.6685L54.8434 24.7785ZM55.494 23.0887L57.4523 23.4946L57.6086 22.7406L55.6502 22.3347L53.6918 21.9289L53.5356 22.6828L55.494 23.0887ZM83.371 5.9121L83.209 7.90554L83.4232 7.92294L83.6362 7.89444L83.371 5.9121ZM81.8245 5.68213L81.3568 7.62666L81.3902 7.6347L81.4239 7.64159L81.8245 5.68213ZM79.7829 5.12499L80.3481 3.20648L78.4345 2.64285L77.8659 4.55488L79.7829 5.12499ZM78.2756 10.1936L76.3585 9.62347L75.6556 11.9873L78.1136 12.187L78.2756 10.1936ZM82.0591 10.5009L83.9733 11.0805L84.6916 8.70822L82.2211 8.50751L82.0591 10.5009ZM81.4887 12.3849L81.3267 14.3784L82.9352 14.509L83.4029 12.9645L81.4887 12.3849ZM77.7051 12.0776L77.8671 10.0841L76.2574 9.95337L75.7905 11.4995L77.7051 12.0776ZM74.8145 21.6509L74.6525 23.6444L76.2623 23.7751L76.7291 22.2291L74.8145 21.6509ZM71.0828 21.3478L69.1682 20.7694L68.4519 23.1406L70.9208 23.3412L71.0828 21.3478ZM76.2208 4.33998L78.1353 4.91835L78.8844 2.43879L76.296 2.34139L76.2208 4.33998ZM73.5178 5.50292L71.9089 4.31487L71.9002 4.32659L71.8917 4.33844L73.5178 5.50292ZM72.3985 10.29L70.4022 10.4116L70.4064 10.4807L70.4153 10.5493L72.3985 10.29ZM72.5749 11.0087L70.697 11.697L70.7078 11.7263L70.7194 11.7553L72.5749 11.0087ZM72.614 11.1683L70.6206 11.0064L70.5535 11.8321L71.09 12.4634L72.614 11.1683ZM72.6358 11.2223L72.4738 13.2157L74.4672 13.3777L74.6292 11.3842L72.6358 11.2223ZM70.5592 10.4536L69.0618 11.7795L69.0889 11.81L69.1171 11.8394L70.5592 10.4536ZM72.7714 3.77281L73.8765 5.43979L73.8789 5.43816L72.7714 3.77281ZM79.4514 2.4634L79.2894 4.45683L79.4514 2.4634ZM80.0194 2.53563L79.705 4.51077L79.705 4.51077L80.0194 2.53563ZM81.1253 2.72982L81.4848 0.762388L81.4848 0.762389L81.1253 2.72982ZM82.6934 3.01373L82.3432 4.98282L82.392 4.9915L82.4412 4.99775L82.6934 3.01373ZM83.7279 3.12385L83.8899 1.13042L83.7279 3.12385ZM85.0041 3.14927L84.8952 1.15223V1.15223L85.0041 3.14927ZM86.0855 3.00235L87.7961 4.03867L90.2428 -1.36518e-06L85.6396 1.05268L86.0855 3.00235ZM85.787 3.78676L83.9084 3.10053L83.9084 3.10053L85.787 3.78676ZM85.1978 4.93883L83.6121 3.71993L83.6121 3.71993L85.1978 4.93883ZM84.4132 5.60549L85.3324 7.38175L85.3464 7.37453L85.3602 7.3671L84.4132 5.60549ZM83.371 5.9121L83.5329 3.91867C83.1624 3.88857 82.7281 3.8255 82.2252 3.72267L81.8245 5.68213L81.4239 7.64159C82.05 7.7696 82.6466 7.85984 83.209 7.90554L83.371 5.9121ZM81.8245 5.68213L82.2923 3.7376C81.7911 3.61704 81.1456 3.4414 80.3481 3.20648L79.7829 5.12499L79.2178 7.04349C80.0508 7.28884 80.7663 7.48462 81.3568 7.62666L81.8245 5.68213ZM79.7829 5.12499L77.8659 4.55488L76.3585 9.62347L78.2756 10.1936L80.1926 10.7637L81.7 5.6951L79.7829 5.12499ZM78.2756 10.1936L78.1136 12.187L81.8972 12.4944L82.0591 10.5009L82.2211 8.50751L78.4375 8.20014L78.2756 10.1936ZM82.0591 10.5009L80.1449 9.92138L79.5745 11.8054L81.4887 12.3849L83.4029 12.9645L83.9733 11.0805L82.0591 10.5009ZM81.4887 12.3849L81.6506 10.3915L77.8671 10.0841L77.7051 12.0776L77.5432 14.071L81.3267 14.3784L81.4887 12.3849ZM77.7051 12.0776L75.7905 11.4995L72.8999 21.0728L74.8145 21.6509L76.7291 22.2291L79.6198 12.6557L77.7051 12.0776ZM74.8145 21.6509L74.9764 19.6575L71.2447 19.3544L71.0828 21.3478L70.9208 23.3412L74.6525 23.6444L74.8145 21.6509ZM71.0828 21.3478L72.9973 21.9262L78.1353 4.91835L76.2208 4.33998L74.3063 3.76159L69.1682 20.7694L71.0828 21.3478ZM76.2208 4.33998L76.296 2.34139C74.5713 2.27649 72.9801 2.86414 71.9089 4.31487L73.5178 5.50292L75.1266 6.69098C75.2669 6.50108 75.4777 6.31343 76.1456 6.33856L76.2208 4.33998ZM73.5178 5.50292L71.8917 4.33844C70.9846 5.60517 70.5781 7.35515 70.4227 9.26867L72.4161 9.43062L74.4095 9.59256C74.546 7.91259 74.874 7.0441 75.1438 6.6674L73.5178 5.50292ZM72.4161 9.43062L70.4227 9.26867C70.3908 9.66146 70.3799 10.0467 70.4022 10.4116L72.3985 10.29L74.3948 10.1684C74.3872 10.044 74.3881 9.85627 74.4095 9.59256L72.4161 9.43062ZM72.3985 10.29L70.4153 10.5493C70.4667 10.9419 70.5608 11.3253 70.697 11.697L72.5749 11.0087L74.4527 10.3203C74.4181 10.226 74.3946 10.1303 74.3816 10.0307L72.3985 10.29ZM72.5749 11.0087L70.7194 11.7553C70.7118 11.7363 70.6871 11.6735 70.664 11.5793C70.6455 11.5037 70.5975 11.2906 70.6206 11.0064L72.614 11.1683L74.6075 11.3303C74.6516 10.7878 74.4657 10.3502 74.4303 10.262L72.5749 11.0087ZM72.614 11.1683L71.09 12.4634C70.9062 12.2472 70.5856 11.7582 70.6423 11.0603L72.6358 11.2223L74.6292 11.3842C74.6887 10.6518 74.3536 10.1269 74.1381 9.87328L72.614 11.1683ZM72.6358 11.2223L72.7977 9.22885C72.4423 9.19998 72.2161 9.14396 72.0853 9.09554C71.9593 9.04891 71.9586 9.02346 72.0013 9.06784L70.5592 10.4536L69.1171 11.8394C70.0267 12.786 71.3009 13.1204 72.4738 13.2157L72.6358 11.2223ZM70.5592 10.4536L72.0565 9.12773C72.0964 9.17272 72.092 9.19562 72.0779 9.13914C72.061 9.07165 72.0384 8.91793 72.0605 8.64525L70.0671 8.4833L68.0737 8.32136C67.9791 9.48529 68.168 10.77 69.0618 11.7795L70.5592 10.4536ZM70.0671 8.4833L72.0605 8.64525C72.1808 7.16461 72.7813 6.16579 73.8765 5.43978L72.7714 3.77281L71.6663 2.10583C69.4898 3.5487 68.2874 5.6902 68.0737 8.32136L70.0671 8.4833ZM72.7714 3.77281L73.8789 5.43816C75.0317 4.67152 76.7575 4.25114 79.2894 4.45683L79.4514 2.4634L79.6133 0.469964C76.5476 0.220914 73.8201 0.673476 71.6639 2.10745L72.7714 3.77281ZM79.4514 2.4634L79.2894 4.45683C79.3769 4.46394 79.5121 4.48007 79.705 4.51077L80.0194 2.53563L80.3338 0.560491C80.0802 0.520143 79.8368 0.488124 79.6133 0.469964L79.4514 2.4634ZM80.0194 2.53563L79.705 4.51077C79.9036 4.54237 80.2525 4.60344 80.7658 4.69724L81.1253 2.72982L81.4848 0.762389C80.9699 0.668315 80.5816 0.599934 80.3337 0.56049L80.0194 2.53563ZM81.1253 2.72982L80.7658 4.69724C81.4521 4.82264 81.9785 4.91796 82.3432 4.98282L82.6934 3.01373L83.0437 1.04463C82.6884 0.98144 82.1694 0.887478 81.4848 0.762388L81.1253 2.72982ZM82.6934 3.01373L82.4412 4.99775C82.8435 5.04892 83.2191 5.0891 83.566 5.11728L83.7279 3.12385L83.8899 1.13042C83.6148 1.10807 83.3007 1.07484 82.9457 1.0297L82.6934 3.01373ZM83.7279 3.12385L83.566 5.11728C84.1041 5.161 84.6216 5.17309 85.1129 5.1463L85.0041 3.14927L84.8952 1.15223C84.6179 1.16735 84.2847 1.1625 83.8899 1.13042L83.7279 3.12385ZM85.0041 3.14927L85.1129 5.1463C85.598 5.11985 86.0722 5.05703 86.5314 4.95202L86.0855 3.00235L85.6396 1.05268C85.4255 1.10166 85.1787 1.13678 84.8952 1.15223L85.0041 3.14927ZM86.0855 3.00235L84.3749 1.96603C84.2979 2.0931 84.2481 2.20978 84.2454 2.216C84.2285 2.2541 84.2136 2.29026 84.2024 2.31785C84.1793 2.37467 84.1534 2.44152 84.1266 2.512C84.072 2.65535 83.9988 2.85307 83.9084 3.10053L85.787 3.78676L87.6656 4.47298C87.7541 4.23065 87.8201 4.05275 87.8651 3.93463C87.888 3.87437 87.9019 3.83902 87.9087 3.8222C87.9125 3.81296 87.91 3.81943 87.9031 3.83497C87.8997 3.8427 87.8914 3.8613 87.8793 3.88615C87.8714 3.90246 87.8418 3.96318 87.7961 4.03867L86.0855 3.00235ZM85.787 3.78676L83.9084 3.10053C83.7689 3.48241 83.6573 3.66123 83.6121 3.71993L85.1978 4.93883L86.7834 6.15773C87.1661 5.65991 87.4473 5.07067 87.6656 4.47298L85.787 3.78676ZM85.1978 4.93883L83.6121 3.71993C83.5704 3.77421 83.5266 3.81147 83.4663 3.84389L84.4132 5.60549L85.3602 7.3671C85.9182 7.06715 86.3974 6.65997 86.7834 6.15773L85.1978 4.93883ZM84.4132 5.60549L83.4941 3.82923C83.4516 3.85119 83.3361 3.89895 83.1058 3.92977L83.371 5.9121L83.6362 7.89444C84.2146 7.81706 84.794 7.6604 85.3324 7.38175L84.4132 5.60549ZM83.4266 22.4904L83.1641 24.4731L84.7728 24.6861L85.3127 23.1558L83.4266 22.4904ZM79.715 21.9989L77.8299 21.3309L77.0054 23.6576L79.4525 23.9816L79.715 21.9989ZM84.1536 9.47319L84.4161 7.4905L82.8097 7.27779L82.2685 8.80518L84.1536 9.47319ZM87.8652 9.96465L89.7518 10.6285L90.5693 8.30524L88.1278 7.98196L87.8652 9.96465ZM87.3186 11.5183L85.4319 10.8545L83.5093 16.3186L88.3937 13.2048L87.3186 11.5183ZM89.2643 10.4908L89.8856 12.3919L89.9009 12.3869L89.9161 12.3816L89.2643 10.4908ZM90.6489 10.3332L90.9115 8.35055L90.6489 10.3332ZM91.8626 11.0709L90.1905 12.1682L90.2031 12.1875L90.2162 12.2065L91.8626 11.0709ZM91.4785 13.7739L90.2238 12.2164L91.4785 13.7739ZM89.3979 13.8394L87.8844 15.1468L87.9184 15.1861L87.9543 15.2236L89.3979 13.8394ZM89.1754 12.9444L91.1747 12.8904L91.174 12.8637L91.1725 12.8371L89.1754 12.9444ZM89.0633 12.405L87.351 13.4386L87.4083 13.5334L87.4756 13.6214L89.0633 12.405ZM88.7968 12.2386L88.5343 14.2213L88.7968 12.2386ZM86.7855 12.9689L85.6336 11.334L85.1118 11.7016L84.8994 12.3036L86.7855 12.9689ZM83.4266 22.4904L83.6892 20.5077L79.9776 20.0162L79.715 21.9989L79.4525 23.9816L83.1641 24.4731L83.4266 22.4904ZM79.715 21.9989L81.6002 22.667L86.0388 10.1412L84.1536 9.47319L82.2685 8.80518L77.8299 21.3309L79.715 21.9989ZM84.1536 9.47319L83.8911 11.4559L87.6027 11.9473L87.8652 9.96465L88.1278 7.98196L84.4161 7.4905L84.1536 9.47319ZM87.8652 9.96465L85.9786 9.30083L85.4319 10.8545L87.3186 11.5183L89.2052 12.1822L89.7518 10.6285L87.8652 9.96465ZM87.3186 11.5183L88.3937 13.2048C89.2097 12.6845 89.6814 12.4586 89.8856 12.3919L89.2643 10.4908L88.643 8.5898C87.9333 8.82173 87.1079 9.2808 86.2434 9.83189L87.3186 11.5183ZM89.2643 10.4908L89.9161 12.3816C90.134 12.3065 90.2822 12.3021 90.3864 12.3159L90.6489 10.3332L90.9115 8.35055C90.1222 8.24604 89.3472 8.34671 88.6124 8.60007L89.2643 10.4908ZM90.6489 10.3332L90.3864 12.3159C90.4149 12.3197 90.3777 12.3189 90.3131 12.2796C90.2827 12.2612 90.2549 12.2393 90.2316 12.2165C90.2086 12.194 90.1956 12.176 90.1905 12.1682L91.8626 11.0709L93.5347 9.9737C92.9161 9.03098 91.9769 8.49163 90.9115 8.35055L90.6489 10.3332ZM91.8626 11.0709L90.2162 12.2065C90.2137 12.2028 90.2086 12.1946 90.2034 12.1826C90.1983 12.1707 90.1953 12.1603 90.1939 12.1537C90.1925 12.1474 90.1936 12.1493 90.1939 12.1618C90.1943 12.1747 90.194 12.1999 90.1887 12.2393L92.1714 12.5019L94.1541 12.7644C94.283 11.7915 94.1062 10.8013 93.509 9.9354L91.8626 11.0709ZM92.1714 12.5019L90.1887 12.2393C90.1852 12.2657 90.1814 12.2782 90.181 12.2798C90.1806 12.281 90.1827 12.2743 90.189 12.2626C90.1954 12.2508 90.2035 12.239 90.212 12.229C90.2203 12.2191 90.2254 12.2151 90.2238 12.2164L91.4785 13.7739L92.7332 15.3314C93.5539 14.6702 94.0213 13.7676 94.1541 12.7644L92.1714 12.5019ZM91.4785 13.7739L90.2238 12.2164C90.2303 12.2112 90.2446 12.2008 90.2664 12.1898C90.2884 12.1787 90.3114 12.1702 90.3329 12.1646C90.3787 12.1528 90.3852 12.1624 90.329 12.155L90.0665 14.1377L89.804 16.1204C90.8343 16.2568 91.869 16.0275 92.7332 15.3314L91.4785 13.7739ZM90.0665 14.1377L90.329 12.155C90.3393 12.1564 90.5911 12.1941 90.8414 12.4551L89.3979 13.8394L87.9543 15.2236C88.5119 15.8051 89.2094 16.0417 89.804 16.1204L90.0665 14.1377ZM89.3979 13.8394L90.9113 12.5319C91.0213 12.6593 91.0865 12.777 91.1231 12.8564C91.1597 12.9357 91.1755 12.993 91.1809 13.0147C91.19 13.0513 91.1782 13.0211 91.1747 12.8904L89.1754 12.9444L87.1761 12.9984C87.1891 13.4794 87.2546 14.4178 87.8844 15.1468L89.3979 13.8394ZM89.1754 12.9444L91.1725 12.8371C91.1621 12.6427 91.1412 12.4173 91.0941 12.1911C91.0586 12.0204 90.961 11.5935 90.6509 11.1887L89.0633 12.405L87.4756 13.6214C87.334 13.4365 87.2635 13.2708 87.2321 13.1874C87.198 13.0969 87.1831 13.0306 87.1779 13.0054C87.1683 12.959 87.1736 12.9643 87.1783 13.0518L89.1754 12.9444ZM89.0633 12.405L90.7755 11.3714C90.3722 10.7033 89.7178 10.3431 89.0593 10.2559L88.7968 12.2386L88.5343 14.2213C88.356 14.1977 88.1274 14.1342 87.8942 13.9885C87.656 13.8398 87.4748 13.6437 87.351 13.4386L89.0633 12.405ZM88.7968 12.2386L89.0593 10.2559C88.4855 10.1799 87.9076 10.2258 87.3476 10.4021L87.9481 12.3098L88.5487 14.2175C88.5479 14.2178 88.5457 14.2184 88.5425 14.219C88.5392 14.2197 88.5359 14.2201 88.5328 14.2204C88.5297 14.2207 88.5278 14.2206 88.5275 14.2206C88.5272 14.2206 88.5294 14.2207 88.5343 14.2213L88.7968 12.2386ZM87.9481 12.3098L87.3476 10.4021C86.7584 10.5876 86.1568 10.9653 85.6336 11.334L86.7855 12.9689L87.9374 14.6039C88.153 14.452 88.3183 14.3472 88.4386 14.2791C88.5692 14.205 88.5982 14.2019 88.5487 14.2175L87.9481 12.3098ZM86.7855 12.9689L84.8994 12.3036L81.5405 21.825L83.4266 22.4904L85.3127 23.1558L88.6716 13.6343L86.7855 12.9689ZM96.3802 21.5814L95.1868 19.9764L95.1834 19.9789L96.3802 21.5814ZM97.5746 20.065L99.3439 20.9975L99.3835 20.9224L99.4165 20.8442L97.5746 20.065ZM100.899 12.208L101.279 10.2445L99.6882 9.93609L99.0568 11.4287L100.899 12.208ZM104.574 12.9205L106.416 13.6997L107.378 11.4268L104.955 10.9571L104.574 12.9205ZM101.054 21.2427L102.888 22.0402L102.892 22.031L102.896 22.0218L101.054 21.2427ZM100.893 21.6618L102.783 22.3162L102.789 22.2997L102.794 22.283L100.893 21.6618ZM100.794 22.0397L98.8302 21.659L100.794 22.0397ZM100.88 22.8244L99.2223 23.9437L99.2843 24.0355L99.3561 24.1198L100.88 22.8244ZM101.657 23.187L101.276 25.1504L101.657 23.187ZM102.971 22.8325L101.777 21.2275L102.971 22.8325ZM104.16 21.3416L104.541 19.3782L103.093 19.0975L102.397 20.3974L104.16 21.3416ZM105.232 21.5494L106.961 22.554L108.374 20.1214L105.613 19.586L105.232 21.5494ZM102.426 24.6867L103.458 26.3996L103.467 26.3941L103.476 26.3885L102.426 24.6867ZM97.5437 24.3229L95.9084 25.4744L95.9201 25.491L95.9322 25.5075L97.5437 24.3229ZM97.1293 22.3622L99.1183 22.5713L99.7598 16.4694L95.6456 21.0211L97.1293 22.3622ZM95.0883 23.8734L95.8247 25.7329L95.8375 25.7278L95.0883 23.8734ZM91.0184 22.8725L89.2902 23.879L89.3069 23.9077L89.3246 23.9359L91.0184 22.8725ZM90.9387 19.7319L92.8398 20.3532L92.842 20.3463L92.8442 20.3394L90.9387 19.7319ZM91.27 18.8427L89.428 18.0635L89.4271 18.0658L91.27 18.8427ZM94.5941 10.9858L94.9747 9.02231L93.3836 8.71386L92.7521 10.2065L94.5941 10.9858ZM98.2696 11.6983L100.112 12.4775L101.073 10.2046L98.6503 9.73487L98.2696 11.6983ZM94.7494 20.0205L96.5619 20.8659L96.5773 20.833L96.5914 20.7996L94.7494 20.0205ZM94.5986 20.3885L92.7088 19.734L92.6622 19.8683L92.6352 20.0079L94.5986 20.3885ZM94.5343 20.7203L92.5709 20.3397L94.5343 20.7203ZM94.5596 21.5462L92.6988 22.2792L92.7384 22.3798L92.7886 22.4755L94.5596 21.5462ZM95.0972 21.9153L94.7165 23.8787C95.7941 24.0876 96.7841 23.7759 97.577 23.1838L96.3802 21.5814L95.1834 19.9789C95.1503 20.0037 95.1714 19.98 95.246 19.9606C95.327 19.9395 95.4118 19.939 95.4778 19.9518L95.0972 21.9153ZM96.3802 21.5814L97.5735 23.1863C98.3285 22.625 98.8986 21.8423 99.3439 20.9975L97.5746 20.065L95.8053 19.1324C95.5245 19.6652 95.2983 19.8935 95.1869 19.9764L96.3802 21.5814ZM97.5746 20.065L99.4165 20.8442L102.741 12.9873L100.899 12.208L99.0568 11.4287L95.7327 19.2857L97.5746 20.065ZM100.899 12.208L100.518 14.1714L104.194 14.884L104.574 12.9205L104.955 10.9571L101.279 10.2445L100.899 12.208ZM104.574 12.9205L102.732 12.1414L99.2121 20.4635L101.054 21.2427L102.896 22.0218L106.416 13.6997L104.574 12.9205ZM101.054 21.2427L99.2199 20.4452C99.1346 20.6414 99.0578 20.8402 98.9923 21.0405L100.893 21.6618L102.794 22.283C102.816 22.2177 102.846 22.1371 102.888 22.0402L101.054 21.2427ZM100.893 21.6618L99.0035 21.0073C98.9287 21.2232 98.8723 21.4419 98.8302 21.659L100.794 22.0397L102.757 22.4203C102.768 22.3652 102.778 22.3319 102.783 22.3162L100.893 21.6618ZM100.794 22.0397L98.8302 21.659C98.7192 22.2316 98.6704 23.1263 99.2223 23.9437L100.88 22.8244L102.537 21.7052C102.689 21.9301 102.739 22.1428 102.754 22.2727C102.767 22.3935 102.751 22.4519 102.757 22.4203L100.794 22.0397ZM100.88 22.8244L99.3561 24.1198C99.9406 24.8074 100.746 25.0476 101.276 25.1504L101.657 23.187L102.038 21.2235C101.961 21.2087 101.969 21.2021 102.027 21.2294C102.086 21.2569 102.244 21.341 102.404 21.529L100.88 22.8244ZM101.657 23.187L101.276 25.1504C102.379 25.3642 103.377 25.0228 104.164 24.4375L102.971 22.8325L101.777 21.2275C101.725 21.2666 101.731 21.2493 101.796 21.2318C101.828 21.223 101.869 21.2161 101.914 21.2144C101.96 21.2127 102.002 21.2167 102.038 21.2235L101.657 23.187ZM102.971 22.8325L104.164 24.4375C104.91 23.8829 105.478 23.1174 105.923 22.2858L104.16 21.3416L102.397 20.3974C102.123 20.9094 101.898 21.1379 101.777 21.2275L102.971 22.8325ZM104.16 21.3416L103.779 23.3051L104.851 23.5129L105.232 21.5494L105.613 19.586L104.541 19.3782L104.16 21.3416ZM105.232 21.5494L103.503 20.5449C102.757 21.8287 102.027 22.5821 101.375 22.9849L102.426 24.6867L103.476 26.3885C104.87 25.5282 106.011 24.1901 106.961 22.554L105.232 21.5494ZM102.426 24.6867L101.393 22.9737C100.786 23.3399 100.208 23.4378 99.5668 23.3135L99.1861 25.2769L98.8055 27.2404C100.445 27.5581 102.026 27.2625 103.458 26.3996L102.426 24.6867ZM99.1861 25.2769L99.5668 23.3135C99.2167 23.2456 99.1593 23.1441 99.1551 23.1383L97.5437 24.3229L95.9322 25.5075C96.6545 26.4901 97.6921 27.0245 98.8055 27.2404L99.1861 25.2769ZM97.5437 24.3229L99.1789 23.1714C99.1686 23.1567 99.0707 23.0244 99.1183 22.5713L97.1293 22.3622L95.1402 22.1531C95.0205 23.2919 95.1988 24.4667 95.9084 25.4744L97.5437 24.3229ZM97.1293 22.3622L95.6456 21.0211C95.1432 21.5768 94.7019 21.8725 94.3392 22.019L95.0883 23.8734L95.8375 25.7278C96.8923 25.3016 97.8117 24.5898 98.613 23.7033L97.1293 22.3622ZM95.0883 23.8734L94.352 22.0139C94.0457 22.1352 93.7003 22.1762 93.2621 22.0913L92.8815 24.0547L92.5009 26.0181C93.6282 26.2367 94.754 26.1569 95.8247 25.7329L95.0883 23.8734ZM92.8815 24.0547L93.2621 22.0913C92.8496 22.0113 92.7567 21.8799 92.7123 21.8091L91.0184 22.8725L89.3246 23.9359C90.0626 25.1115 91.2118 25.7682 92.5009 26.0181L92.8815 24.0547ZM91.0184 22.8725L92.7467 21.866C92.6922 21.7724 92.58 21.501 92.7076 20.8429L90.7441 20.4623L88.7807 20.0816C88.5322 21.3634 88.6029 22.6989 89.2902 23.879L91.0184 22.8725ZM90.7441 20.4623L92.7076 20.8429C92.7315 20.7197 92.7729 20.5579 92.8398 20.3532L90.9387 19.7319L89.0376 19.1107C88.9309 19.4373 88.8426 19.7624 88.7807 20.0816L90.7441 20.4623ZM90.9387 19.7319L92.8442 20.3394C92.9138 20.1211 93.0025 19.8815 93.1129 19.6197L91.27 18.8427L89.4271 18.0658C89.276 18.4242 89.1438 18.7774 89.0332 19.1245L90.9387 19.7319ZM91.27 18.8427L93.1119 19.622L96.436 11.765L94.5941 10.9858L92.7521 10.2065L89.428 18.0635L91.27 18.8427ZM94.5941 10.9858L94.2134 12.9492L97.889 13.6618L98.2696 11.6983L98.6503 9.73487L94.9747 9.02231L94.5941 10.9858ZM98.2696 11.6983L96.4276 10.9192L92.9074 19.2413L94.7494 20.0205L96.5914 20.7996L100.112 12.4775L98.2696 11.6983ZM94.7494 20.0205L92.9369 19.175C92.8521 19.3569 92.7747 19.5436 92.7088 19.734L94.5986 20.3885L96.4885 21.043C96.5028 21.0017 96.5259 20.9431 96.5619 20.8659L94.7494 20.0205ZM94.5986 20.3885L92.6352 20.0079C92.6182 20.0954 92.6372 19.9974 92.62 20.086C92.6032 20.1728 92.6213 20.0795 92.6043 20.1674C92.585 20.2665 92.6073 20.1517 92.5879 20.2519C92.5781 20.3026 92.5809 20.288 92.5709 20.3397L94.5343 20.7203L96.4978 21.1009C96.5202 20.9849 96.5095 21.0405 96.5312 20.9287C96.5438 20.8636 96.5503 20.83 96.5621 20.7691L94.5986 20.3885ZM94.5343 20.7203L92.5709 20.3397C92.4683 20.8688 92.4207 21.5734 92.6988 22.2792L94.5596 21.5462L96.4204 20.8132C96.4796 20.9635 96.4889 21.077 96.4902 21.1209C96.4915 21.1636 96.4861 21.1612 96.4978 21.1009L94.5343 20.7203ZM94.5596 21.5462L92.7886 22.4755C93.2241 23.3054 93.9792 23.7358 94.7165 23.8787L95.0972 21.9153L95.4778 19.9518C95.5677 19.9692 95.7268 20.0159 95.9033 20.1371C96.0879 20.2638 96.2342 20.4333 96.3306 20.6169L94.5596 21.5462ZM112.551 12.7754L111.562 11.0374L111.543 11.0479L111.525 11.0589L112.551 12.7754ZM110.994 13.0001L111.481 11.0605L110.994 13.0001ZM109.727 12.0649L111.444 11.0385V11.0385L109.727 12.0649ZM110.438 9.24091L111.464 10.9574L111.483 10.9465L111.501 10.9352L110.438 9.24091ZM112.002 8.991L111.514 10.9306L112.002 8.991ZM113.262 9.95138L111.524 10.9411L111.545 10.978L111.568 11.0141L113.262 9.95138ZM104.024 22.2657L105.888 22.9905L105.891 22.9837L105.894 22.977L104.024 22.2657ZM104.404 21.3961L102.608 20.5167L102.607 20.519L104.404 21.3961ZM108.155 13.7336L108.643 11.7941L107.071 11.3987L106.358 12.8543L108.155 13.7336ZM111.786 14.6471L113.582 15.5263L114.667 13.3097L112.274 12.7075L111.786 14.6471ZM107.813 22.7632L109.601 23.6603L109.605 23.6514L109.61 23.6424L107.813 22.7632ZM107.63 23.1728L109.481 23.9302L109.488 23.914L109.494 23.8976L107.63 23.1728ZM107.51 23.5447L105.57 23.0567L107.51 23.5447ZM107.553 24.333L105.836 25.3595L105.893 25.4545L105.96 25.5427L107.553 24.333ZM108.309 24.7377L107.821 26.6773L108.309 24.7377ZM109.797 24.4688L110.788 26.2059L110.806 26.1958L110.824 26.1853L109.797 24.4688ZM111.136 23.0898L111.624 21.1502L110.192 20.7898L109.426 22.053L111.136 23.0898ZM112.195 23.3562L113.863 24.46L115.421 22.1055L112.683 21.4166L112.195 23.3562ZM109.151 26.2902L108.246 24.5069L108.246 24.5069L109.151 26.2902ZM103.931 25.4059L102.15 26.3159L102.165 26.3455L102.182 26.3746L103.931 25.4059ZM113.512 11.5156L111.572 11.0277C111.567 11.0483 111.563 11.0556 111.564 11.0532C111.565 11.0522 111.566 11.0497 111.568 11.046C111.571 11.0423 111.573 11.0382 111.577 11.0341C111.58 11.0299 111.583 11.0263 111.585 11.0235C111.588 11.0207 111.59 11.0193 111.59 11.0191C111.591 11.0186 111.583 11.0254 111.562 11.0374L112.551 12.7754L113.541 14.5133C114.512 13.9607 115.178 13.0914 115.451 12.0036L113.512 11.5156ZM112.551 12.7754L111.525 11.0589C111.507 11.0696 111.499 11.0725 111.499 11.0723C111.5 11.0719 111.506 11.0702 111.514 11.069C111.521 11.0679 111.525 11.0683 111.523 11.0681C111.52 11.068 111.507 11.067 111.481 11.0605L110.994 13.0001L110.506 14.9396C111.566 15.2065 112.631 15.0579 113.578 14.4919L112.551 12.7754ZM110.994 13.0001L111.481 11.0605C111.456 11.054 111.444 11.0486 111.441 11.0475C111.439 11.0466 111.443 11.0482 111.449 11.0529C111.456 11.0576 111.46 11.0616 111.46 11.0624C111.461 11.063 111.455 11.0564 111.444 11.0385L109.727 12.0649L108.011 13.0913C108.577 14.0379 109.445 14.6728 110.506 14.9396L110.994 13.0001ZM109.727 12.0649L111.444 11.0385C111.433 11.0205 111.43 11.0121 111.431 11.0128C111.431 11.0138 111.433 11.0191 111.434 11.027C111.435 11.0349 111.435 11.0388 111.435 11.0366C111.435 11.034 111.436 11.0206 111.442 10.995L109.503 10.507L107.563 10.019C107.296 11.0798 107.445 12.1448 108.011 13.0913L109.727 12.0649ZM109.503 10.507L111.442 10.995C111.449 10.9693 111.454 10.9571 111.455 10.9547C111.456 10.9526 111.455 10.9563 111.45 10.9627C111.445 10.9691 111.441 10.973 111.44 10.9737C111.44 10.9742 111.446 10.9681 111.464 10.9574L110.438 9.24091L109.411 7.52439C108.465 8.09038 107.83 8.95833 107.563 10.019L109.503 10.507ZM110.438 9.24091L111.501 10.9352C111.521 10.9223 111.531 10.9187 111.53 10.919C111.53 10.9191 111.528 10.9199 111.524 10.9209C111.52 10.9219 111.516 10.9229 111.511 10.9238C111.505 10.9246 111.5 10.9251 111.496 10.9253C111.492 10.9255 111.489 10.9254 111.488 10.9254C111.485 10.9253 111.493 10.9254 111.514 10.9306L112.002 8.991L112.49 7.05144C111.402 6.77776 110.321 6.95316 109.375 7.54661L110.438 9.24091ZM112.002 8.991L111.514 10.9306C111.535 10.9358 111.542 10.9395 111.54 10.9384C111.539 10.938 111.536 10.9367 111.533 10.9345C111.529 10.9322 111.525 10.9295 111.521 10.9263C111.516 10.9231 111.513 10.92 111.51 10.9173C111.507 10.9147 111.506 10.913 111.506 10.9129C111.505 10.9122 111.512 10.92 111.524 10.9411L113.262 9.95138L115 8.96169C114.447 7.99116 113.578 7.32511 112.49 7.05144L112.002 8.991ZM113.262 9.95138L111.568 11.0141C111.58 11.0346 111.584 11.0444 111.584 11.0436C111.584 11.0434 111.583 11.0413 111.582 11.0376C111.581 11.0338 111.58 11.0292 111.579 11.024C111.578 11.0188 111.578 11.0139 111.577 11.0096C111.577 11.0053 111.577 11.0025 111.577 11.0014C111.578 10.9988 111.577 11.007 111.572 11.0277L113.512 11.5156L115.451 12.0036C115.725 10.9158 115.55 9.8348 114.956 8.88866L113.262 9.95138ZM103.79 22.9842L105.729 23.4722C105.76 23.3505 105.81 23.1912 105.888 22.9905L104.024 22.2657L102.16 21.541C102.036 21.8612 101.93 22.181 101.85 22.4963L103.79 22.9842ZM104.024 22.2657L105.894 22.977C105.975 22.7629 106.077 22.5285 106.201 22.2731L104.404 21.3961L102.607 20.519C102.436 20.8686 102.285 21.214 102.155 21.5545L104.024 22.2657ZM104.404 21.3961L106.2 22.2754L109.951 14.613L108.155 13.7336L106.358 12.8543L102.608 20.5167L104.404 21.3961ZM108.155 13.7336L107.667 15.6732L111.298 16.5867L111.786 14.6471L112.274 12.7075L108.643 11.7941L108.155 13.7336ZM111.786 14.6471L109.989 13.7679L106.017 21.884L107.813 22.7632L109.61 23.6424L113.582 15.5263L111.786 14.6471ZM107.813 22.7632L106.026 21.8661C105.93 22.0574 105.842 22.2516 105.766 22.4481L107.63 23.1728L109.494 23.8976C109.519 23.8336 109.554 23.7547 109.601 23.6603L107.813 22.7632ZM107.63 23.1728L105.779 22.4155C105.692 22.627 105.624 22.8422 105.57 23.0567L107.51 23.5447L109.449 24.0327C109.463 23.9783 109.475 23.9455 109.481 23.9302L107.63 23.1728ZM107.51 23.5447L105.57 23.0567C105.428 23.6224 105.33 24.513 105.836 25.3595L107.553 24.333L109.269 23.3066C109.408 23.5394 109.447 23.7546 109.454 23.8851C109.461 24.0065 109.441 24.0639 109.449 24.0327L107.51 23.5447ZM107.553 24.333L105.96 25.5427C106.506 26.2614 107.297 26.5454 107.821 26.6773L108.309 24.7377L108.797 22.7982C108.721 22.7792 108.729 22.773 108.786 22.8035C108.843 22.8342 108.996 22.9267 109.145 23.1233L107.553 24.333ZM108.309 24.7377L107.821 26.6773C108.905 26.95 109.931 26.6954 110.788 26.2059L109.797 24.4688L108.806 22.7317C108.706 22.789 108.665 22.7936 108.678 22.7912C108.685 22.7899 108.702 22.7877 108.726 22.7884C108.75 22.7891 108.775 22.7926 108.797 22.7982L108.309 24.7377ZM109.797 24.4688L110.824 26.1853C111.67 25.6792 112.337 24.9671 112.846 24.1266L111.136 23.0898L109.426 22.053C109.202 22.4221 108.976 22.6293 108.771 22.7523L109.797 24.4688ZM111.136 23.0898L110.648 25.0293L111.707 25.2958L112.195 23.3562L112.683 21.4166L111.624 21.1502L111.136 23.0898ZM112.195 23.3562L110.527 22.2525C109.732 23.4546 108.955 24.1471 108.246 24.5069L109.151 26.2902L110.057 28.0736C111.561 27.31 112.813 26.0465 113.863 24.46L112.195 23.3562ZM109.151 26.2902L108.246 24.5069C107.559 24.8555 106.912 24.9245 106.215 24.7492L105.727 26.6887L105.239 28.6283C106.895 29.045 108.531 28.8483 110.057 28.0736L109.151 26.2902ZM105.727 26.6887L106.215 24.7492C105.807 24.6466 105.722 24.5103 105.681 24.4373L103.931 25.4059L102.182 26.3746C102.854 27.589 103.965 28.3079 105.239 28.6283L105.727 26.6887ZM103.931 25.4059L105.712 24.496C105.663 24.3994 105.566 24.1223 105.729 23.4722L103.79 22.9842L101.85 22.4963C101.532 23.7625 101.529 25.0998 102.15 26.3159L103.931 25.4059ZM114.522 15.3822L115.085 13.463L113.512 13.0015L112.751 14.4538L114.522 15.3822ZM115.346 15.6237L114.783 17.5428L116.329 17.9965L117.101 16.5815L115.346 15.6237ZM117.104 12.4003L117.405 10.4231L116.019 10.2122L115.348 11.4425L117.104 12.4003ZM120.943 12.9844L122.701 13.9385L124.059 11.4356L121.244 11.0072L120.943 12.9844ZM118.938 16.6775L117.18 15.7234L115.999 17.8997L118.375 18.5967L118.938 16.6775ZM120.435 17.1166L122.207 18.045L123.339 15.8842L120.998 15.1975L120.435 17.1166ZM119.943 18.056L119.38 19.9752L120.953 20.4367L121.714 18.9844L119.943 18.056ZM118.446 17.6169L119.009 15.6978L117.456 15.2423L116.686 16.666L118.446 17.6169ZM114.654 24.6332L116.405 25.599L116.409 25.5916L116.413 25.5842L114.654 24.6332ZM114.454 25.0354L116.275 25.8641L116.282 25.8481L116.289 25.832L114.454 25.0354ZM114.332 26.1917L112.577 27.1506L112.63 27.2478L112.694 27.3386L114.332 26.1917ZM115.072 26.6254L114.509 28.5446L115.072 26.6254ZM116.57 26.4145L117.493 28.1888L117.511 28.1794L117.529 28.1696L116.57 26.4145ZM117.961 25.0886L118.524 23.1695L117.107 22.7537L116.292 23.9861L117.961 25.0886ZM119.009 25.396L120.633 26.5637L122.281 24.2715L119.572 23.4768L119.009 25.396ZM115.854 28.2095L115.018 26.3923V26.3923L115.854 28.2095ZM110.672 27.1231L108.857 27.9632L108.871 27.9933L108.886 28.023L110.672 27.1231ZM110.887 23.9888L112.721 24.7855L112.724 24.7788L112.727 24.7722L110.887 23.9888ZM111.3 23.1346L109.541 22.1833L109.538 22.1884L111.3 23.1346ZM114.853 16.5631L116.613 17.5144L117.788 15.3398L115.416 14.6439L114.853 16.5631ZM114.03 16.3216L112.258 15.3932L111.126 17.554L113.467 18.2407L114.03 16.3216ZM114.522 15.3822L113.959 17.3013L114.783 17.5428L115.346 15.6237L115.909 13.7045L115.085 13.463L114.522 15.3822ZM115.346 15.6237L117.101 16.5815L118.86 13.3581L117.104 12.4003L115.348 11.4425L113.59 14.6659L115.346 15.6237ZM117.104 12.4003L116.803 14.3775L120.642 14.9617L120.943 12.9844L121.244 11.0072L117.405 10.4231L117.104 12.4003ZM120.943 12.9844L119.185 12.0303L117.18 15.7234L118.938 16.6775L120.696 17.6316L122.701 13.9385L120.943 12.9844ZM118.938 16.6775L118.375 18.5967L119.872 19.0358L120.435 17.1166L120.998 15.1975L119.501 14.7584L118.938 16.6775ZM120.435 17.1166L118.664 16.1882L118.171 17.1276L119.943 18.056L121.714 18.9844L122.207 18.045L120.435 17.1166ZM119.943 18.056L120.506 16.1369L119.009 15.6978L118.446 17.6169L117.883 19.5361L119.38 19.9752L119.943 18.056ZM118.446 17.6169L116.686 16.666L112.894 23.6822L114.654 24.6332L116.413 25.5842L120.205 18.5679L118.446 17.6169ZM114.654 24.6332L112.902 23.6673C112.799 23.8547 112.704 24.0454 112.62 24.2387L114.454 25.0354L116.289 25.832C116.316 25.769 116.354 25.6916 116.405 25.599L114.654 24.6332ZM114.454 25.0354L112.634 24.2067C112.539 24.4147 112.463 24.627 112.401 24.8393L114.32 25.4023L116.239 25.9652C116.255 25.9114 116.268 25.8791 116.275 25.8641L114.454 25.0354ZM114.32 25.4023L112.401 24.8393C112.236 25.399 112.104 26.2851 112.577 27.1506L114.332 26.1917L116.087 25.2327C116.217 25.4708 116.247 25.6872 116.249 25.8179C116.251 25.9395 116.23 25.9961 116.239 25.9652L114.32 25.4023ZM114.332 26.1917L112.694 27.3386C113.211 28.0779 113.99 28.3925 114.509 28.5446L115.072 26.6254L115.635 24.7063C115.56 24.6844 115.568 24.6785 115.624 24.7112C115.68 24.7441 115.829 24.8425 115.97 25.0447L114.332 26.1917ZM115.072 26.6254L114.509 28.5446C115.582 28.8592 116.616 28.6447 117.493 28.1888L116.57 26.4145L115.647 24.6402C115.544 24.6936 115.503 24.6966 115.517 24.6947C115.524 24.6937 115.541 24.6922 115.564 24.6938C115.589 24.6955 115.613 24.6999 115.635 24.7063L115.072 26.6254ZM116.57 26.4145L117.529 28.1696C118.394 27.6968 119.088 27.0111 119.63 26.191L117.961 25.0886L116.292 23.9861C116.055 24.3463 115.821 24.5446 115.611 24.6594L116.57 26.4145ZM117.961 25.0886L117.398 27.0077L118.446 27.3151L119.009 25.396L119.572 23.4768L118.524 23.1695L117.961 25.0886ZM119.009 25.396L117.385 24.2282C116.544 25.3985 115.74 26.0603 115.018 26.3923L115.854 28.2095L116.689 30.0267C118.222 29.3222 119.522 28.1083 120.633 26.5637L119.009 25.396ZM115.854 28.2095L115.018 26.3923C114.318 26.714 113.669 26.7578 112.979 26.5555L112.416 28.4746L111.853 30.3938C113.492 30.8745 115.134 30.7415 116.689 30.0267L115.854 28.2095ZM112.416 28.4746L112.979 26.5555C112.576 26.4372 112.495 26.2977 112.458 26.2231L110.672 27.1231L108.886 28.023C109.51 29.2627 110.593 30.0242 111.853 30.3938L112.416 28.4746ZM110.672 27.1231L112.487 26.283C112.441 26.1846 112.355 25.9039 112.544 25.2607L110.625 24.6977L108.705 24.1348C108.338 25.3876 108.283 26.7238 108.857 27.9632L110.672 27.1231ZM110.625 24.6977L112.544 25.2607C112.579 25.1402 112.635 24.983 112.721 24.7855L110.887 23.9888L109.052 23.1922C108.915 23.5074 108.797 23.8228 108.705 24.1348L110.625 24.6977ZM110.887 23.9888L112.727 24.7722C112.817 24.5614 112.927 24.3311 113.062 24.0808L111.3 23.1346L109.538 22.1884C109.354 22.531 109.189 22.8703 109.047 23.2055L110.887 23.9888ZM111.3 23.1346L113.059 24.0859L116.613 17.5144L114.853 16.5631L113.094 15.6118L109.541 22.1833L111.3 23.1346ZM114.853 16.5631L115.416 14.6439L114.593 14.4024L114.03 16.3216L113.467 18.2407L114.29 18.4822L114.853 16.5631ZM114.03 16.3216L115.801 17.25L116.294 16.3106L114.522 15.3822L112.751 14.4538L112.258 15.3932L114.03 16.3216Z" fill="url(#paint1_linear_1_100)" mask="url(#path-1-outside-1_1_100)"/>
<defs>
<linearGradient id="paint0_linear_1_100" x1="45.9633" y1="25.2258" x2="45.9633" y2="8.72126" gradientUnits="userSpaceOnUse">
<stop offset="0.0806809" stop-color="#821A73"/>
<stop offset="1" stop-color="#D554C2"/>
</linearGradient>
<linearGradient id="paint1_linear_1_100" x1="62.1075" y1="0.572483" x2="63.5447" y2="27.6495" gradientUnits="userSpaceOnUse">
<stop stop-color="#EED55F"/>
</linearGradient>
</defs>
</svg>
