<svg width="85" height="86" viewBox="0 0 85 86" fill="none" xmlns="http://www.w3.org/2000/svg">
<rect x="2.5" y="2.5" width="80" height="81" rx="9.5" fill="url(#paint0_linear_297_165)" stroke="url(#paint1_linear_297_165)" stroke-width="5"/>
<path d="M20.5 23L18 26L20.5 28.5H34L36.5 25.5L34 23H20.5Z" fill="#D9D9D9" fill-opacity="0.2"/>
<path d="M20.5 41L18 44L20.5 46.5H34L36.5 43.5L34 41H20.5Z" fill="#D9D9D9" fill-opacity="0.2"/>
<path d="M20.5 58L18 61L20.5 63.5H34L36.5 60.5L34 58H20.5Z" fill="#D9D9D9" fill-opacity="0.2"/>
<path d="M13 40.8378L16.2727 43L19 40.8378V29.1622L15.7273 27L13 29.1622L13 40.8378Z" fill="#D9D9D9" fill-opacity="0.2"/>
<path d="M13 57.8378L16.2727 60L19 57.8378V46.1622L15.7273 44L13 46.1622L13 57.8378Z" fill="#D9D9D9" fill-opacity="0.2"/>
<path d="M35 40.8378L38.2727 43L41 40.8378V29.1622L37.7273 27L35 29.1622V40.8378Z" fill="#D9D9D9" fill-opacity="0.2"/>
<path d="M35 57.8378L38.2727 60L41 57.8378V46.1622L37.7273 44L35 46.1622V57.8378Z" fill="#D9D9D9" fill-opacity="0.2"/>
<path d="M53.5 23L51 26L53.5 28.5H67L69.5 25.5L67 23H53.5Z" fill="#D9D9D9" fill-opacity="0.2"/>
<path d="M53.5 41L51 44L53.5 46.5H67L69.5 43.5L67 41H53.5Z" fill="#D9D9D9" fill-opacity="0.2"/>
<path d="M53.5 58L51 61L53.5 63.5H67L69.5 60.5L67 58H53.5Z" fill="#D9D9D9" fill-opacity="0.2"/>
<path d="M46 40.8378L49.2727 43L52 40.8378V29.1622L48.7273 27L46 29.1622V40.8378Z" fill="#D9D9D9" fill-opacity="0.2"/>
<path d="M46 57.8378L49.2727 60L52 57.8378V46.1622L48.7273 44L46 46.1622V57.8378Z" fill="#D9D9D9" fill-opacity="0.2"/>
<path d="M68 40.8378L71.2727 43L74 40.8378V29.1622L70.7273 27L68 29.1622V40.8378Z" fill="#D9D9D9" fill-opacity="0.2"/>
<path d="M68 57.8378L71.2727 60L74 57.8378V46.1622L70.7273 44L68 46.1622V57.8378Z" fill="#D9D9D9" fill-opacity="0.2"/>
<circle cx="2.5" cy="24.5" r="1.5" fill="url(#paint2_linear_297_165)"/>
<circle cx="82.5" cy="24.5" r="1.5" fill="url(#paint3_linear_297_165)"/>
<circle cx="2.5" cy="43.5" r="1.5" fill="url(#paint4_linear_297_165)"/>
<circle cx="82.5" cy="43.5" r="1.5" fill="url(#paint5_linear_297_165)"/>
<circle cx="2.5" cy="62.5" r="1.5" fill="#551307"/>
<circle cx="82.5" cy="62.5" r="1.5" fill="url(#paint6_linear_297_165)"/>
<circle cx="5.5" cy="81.5" r="1.5" fill="url(#paint7_linear_297_165)"/>
<circle cx="23.5" cy="83.5" r="1.5" fill="url(#paint8_linear_297_165)"/>
<circle cx="42.5" cy="83.5" r="1.5" fill="url(#paint9_linear_297_165)"/>
<circle cx="61.5" cy="83.5" r="1.5" fill="url(#paint10_linear_297_165)"/>
<circle cx="79.5" cy="80.5" r="1.5" fill="url(#paint11_linear_297_165)"/>
<circle cx="5.5" cy="5.5" r="1.5" fill="url(#paint12_linear_297_165)"/>
<circle cx="23.5" cy="2.5" r="1.5" fill="url(#paint13_linear_297_165)"/>
<circle cx="42.5" cy="2.5" r="1.5" fill="url(#paint14_linear_297_165)"/>
<circle cx="61.5" cy="2.5" r="1.5" fill="url(#paint15_linear_297_165)"/>
<circle cx="79.5" cy="5.5" r="1.5" fill="url(#paint16_linear_297_165)"/>
<defs>
<linearGradient id="paint0_linear_297_165" x1="42.5" y1="0" x2="42.5" y2="86" gradientUnits="userSpaceOnUse">
<stop stop-color="#551307"/>
<stop offset="0.513053" stop-color="#F0000D"/>
<stop offset="1" stop-color="#551307"/>
</linearGradient>
<linearGradient id="paint1_linear_297_165" x1="42.5" y1="0" x2="42.5" y2="86" gradientUnits="userSpaceOnUse">
<stop stop-color="#FACF0E"/>
<stop offset="1" stop-color="#FED313"/>
</linearGradient>
<linearGradient id="paint2_linear_297_165" x1="1" y1="25.2006" x2="4" y2="23.7994" gradientUnits="userSpaceOnUse">
<stop stop-color="#551307"/>
<stop offset="1" stop-color="#BB2A0F"/>
</linearGradient>
<linearGradient id="paint3_linear_297_165" x1="81" y1="25.2006" x2="84" y2="23.7994" gradientUnits="userSpaceOnUse">
<stop stop-color="#551307"/>
<stop offset="1" stop-color="#BB2A0F"/>
</linearGradient>
<linearGradient id="paint4_linear_297_165" x1="1.5" y1="42.5" x2="3" y2="45" gradientUnits="userSpaceOnUse">
<stop stop-color="#FDFED5"/>
<stop offset="1" stop-color="#97987F"/>
</linearGradient>
<linearGradient id="paint5_linear_297_165" x1="81.5" y1="42.5" x2="83" y2="45" gradientUnits="userSpaceOnUse">
<stop stop-color="#FDFED5"/>
<stop offset="1" stop-color="#97987F"/>
</linearGradient>
<linearGradient id="paint6_linear_297_165" x1="81" y1="63.2006" x2="84" y2="61.7994" gradientUnits="userSpaceOnUse">
<stop stop-color="#551307"/>
<stop offset="1" stop-color="#BB2A0F"/>
</linearGradient>
<linearGradient id="paint7_linear_297_165" x1="4.5" y1="80.5" x2="6" y2="83" gradientUnits="userSpaceOnUse">
<stop stop-color="#FDFED5"/>
<stop offset="1" stop-color="#97987F"/>
</linearGradient>
<linearGradient id="paint8_linear_297_165" x1="22" y1="84.2006" x2="25" y2="82.7994" gradientUnits="userSpaceOnUse">
<stop stop-color="#551307"/>
<stop offset="1" stop-color="#BB2A0F"/>
</linearGradient>
<linearGradient id="paint9_linear_297_165" x1="41.5" y1="82.5" x2="43" y2="85" gradientUnits="userSpaceOnUse">
<stop stop-color="#FDFED5"/>
<stop offset="1" stop-color="#97987F"/>
</linearGradient>
<linearGradient id="paint10_linear_297_165" x1="60" y1="84.2006" x2="63" y2="82.7994" gradientUnits="userSpaceOnUse">
<stop stop-color="#551307"/>
<stop offset="1" stop-color="#BB2A0F"/>
</linearGradient>
<linearGradient id="paint11_linear_297_165" x1="78.5" y1="79.5" x2="80" y2="82" gradientUnits="userSpaceOnUse">
<stop stop-color="#FDFED5"/>
<stop offset="1" stop-color="#97987F"/>
</linearGradient>
<linearGradient id="paint12_linear_297_165" x1="4.5" y1="4.5" x2="6" y2="7" gradientUnits="userSpaceOnUse">
<stop stop-color="#FDFED5"/>
<stop offset="1" stop-color="#97987F"/>
</linearGradient>
<linearGradient id="paint13_linear_297_165" x1="22" y1="3.20059" x2="25" y2="1.79941" gradientUnits="userSpaceOnUse">
<stop stop-color="#551307"/>
<stop offset="1" stop-color="#BB2A0F"/>
</linearGradient>
<linearGradient id="paint14_linear_297_165" x1="41.5" y1="1.5" x2="43" y2="4" gradientUnits="userSpaceOnUse">
<stop stop-color="#FDFED5"/>
<stop offset="1" stop-color="#97987F"/>
</linearGradient>
<linearGradient id="paint15_linear_297_165" x1="60" y1="3.20059" x2="63" y2="1.79941" gradientUnits="userSpaceOnUse">
<stop stop-color="#551307"/>
<stop offset="1" stop-color="#BB2A0F"/>
</linearGradient>
<linearGradient id="paint16_linear_297_165" x1="78.5" y1="4.5" x2="80" y2="7" gradientUnits="userSpaceOnUse">
<stop stop-color="#FDFED5"/>
<stop offset="1" stop-color="#97987F"/>
</linearGradient>
</defs>
</svg>
