<svg width="55" height="1" viewBox="0 0 55 1" fill="none" xmlns="http://www.w3.org/2000/svg">
<path d="M54 3.05176e-05C54.1326 -0.00121439 54.2598 0.0503733 54.3536 0.144162C54.4473 0.23791 54.5 0.366177 54.5 0.500031C54.5 0.633884 54.4473 0.762151 54.3536 0.855899C54.2598 0.949688 54.1326 1.00128 54 1.00003C53.1 0.991697 52.2 0.983364 51.3 0.975031C35.1 0.825031 18.9 0.675031 2.7 0.525031C1.8 0.516697 0.899998 0.508364 0 0.500031C0.899998 0.491697 1.8 0.483364 2.7 0.475031C18.9 0.325031 35.1 0.175031 51.3 0.0250305C52.2 0.0166972 53.1 0.00836384 54 3.05176e-05Z" fill="white"/>
</svg>
