<svg width="55" height="1" viewBox="0 0 55 1" fill="none" xmlns="http://www.w3.org/2000/svg">
<path d="M0.5 3.05176e-05C0.367392 -0.00121439 0.240215 0.0503733 0.146447 0.144162C0.0526784 0.23791 -3.72529e-09 0.366177 -3.72529e-09 0.500031C-3.72529e-09 0.633884 0.0526784 0.762151 0.146447 0.855899C0.240215 0.949688 0.367392 1.00128 0.5 1.00003C1.4 0.991697 2.3 0.983364 3.2 0.975031C19.4 0.825031 35.6 0.675031 51.8 0.525031C52.7 0.516697 53.6 0.508364 54.5 0.500031C53.6 0.491697 52.7 0.483364 51.8 0.475031C35.6 0.325031 19.4 0.175031 3.2 0.0250305C2.3 0.0166972 1.4 0.00836384 0.5 3.05176e-05Z" fill="white"/>
</svg>
