<svg width="117" height="117" viewBox="0 0 117 117" fill="none" xmlns="http://www.w3.org/2000/svg">
<path d="M60.6184 42.25H55.8816L53.25 0.25H63.25L60.6184 42.25Z" fill="url(#paint0_linear_280_1389)" stroke="url(#paint1_linear_280_1389)" stroke-width="0.5"/>
<path d="M68.3012 45.5778L64.1989 43.2093L82.9199 5.52049L91.5802 10.5205L68.3012 45.5778Z" fill="url(#paint2_linear_280_1389)" stroke="url(#paint3_linear_280_1389)" stroke-width="0.5"/>
<path d="M73.2907 52.3011L70.9222 48.1989L105.98 24.9199L110.98 33.5801L73.2907 52.3011Z" fill="url(#paint4_linear_280_1389)" stroke="url(#paint5_linear_280_1389)" stroke-width="0.5"/>
<path d="M74.25 60.6184V55.8816L116.25 53.25V63.25L74.25 60.6184Z" fill="url(#paint6_linear_280_1389)" stroke="url(#paint7_linear_280_1389)" stroke-width="0.5"/>
<path d="M70.9222 68.3011L73.2907 64.1989L110.98 82.9199L105.98 91.5801L70.9222 68.3011Z" fill="url(#paint8_linear_280_1389)" stroke="url(#paint9_linear_280_1389)" stroke-width="0.5"/>
<path d="M64.1988 73.2907L68.3011 70.9222L91.5801 105.98L82.9198 110.98L64.1988 73.2907Z" fill="url(#paint10_linear_280_1389)" stroke="url(#paint11_linear_280_1389)" stroke-width="0.5"/>
<path d="M55.8816 74.25H60.6184L63.25 116.25H53.25L55.8816 74.25Z" fill="url(#paint12_linear_280_1389)" stroke="url(#paint13_linear_280_1389)" stroke-width="0.5"/>
<path d="M48.1988 70.9222L52.3011 73.2907L33.5801 110.98L24.9198 105.98L48.1988 70.9222Z" fill="url(#paint14_linear_280_1389)" stroke="url(#paint15_linear_280_1389)" stroke-width="0.5"/>
<path d="M43.2093 64.1989L45.5778 68.3011L10.5205 91.5801L5.52049 82.9199L43.2093 64.1989Z" fill="url(#paint16_linear_280_1389)" stroke="url(#paint17_linear_280_1389)" stroke-width="0.5"/>
<path d="M42.25 55.8816V60.6184L0.25 63.25V53.25L42.25 55.8816Z" fill="url(#paint18_linear_280_1389)" stroke="url(#paint19_linear_280_1389)" stroke-width="0.5"/>
<path d="M45.5778 48.1989L43.2093 52.3011L5.52049 33.5801L10.5205 24.9199L45.5778 48.1989Z" fill="url(#paint20_linear_280_1389)" stroke="url(#paint21_linear_280_1389)" stroke-width="0.5"/>
<path d="M52.3012 43.2093L48.1989 45.5778L24.9199 10.5205L33.5802 5.52049L52.3012 43.2093Z" fill="url(#paint22_linear_280_1389)" stroke="url(#paint23_linear_280_1389)" stroke-width="0.5"/>
<defs>
<linearGradient id="paint0_linear_280_1389" x1="58.25" y1="42.25" x2="58.25" y2="0.25" gradientUnits="userSpaceOnUse">
<stop offset="0.183878" stop-color="#EFDF97"/>
<stop offset="1" stop-color="#898057" stop-opacity="0"/>
</linearGradient>
<linearGradient id="paint1_linear_280_1389" x1="57.5931" y1="0.249998" x2="58.4235" y2="42.2518" gradientUnits="userSpaceOnUse">
<stop stop-color="#7A724E" stop-opacity="0"/>
<stop offset="0.48318" stop-color="#CEB963"/>
</linearGradient>
<linearGradient id="paint2_linear_280_1389" x1="66.25" y1="44.3936" x2="87.25" y2="8.02049" gradientUnits="userSpaceOnUse">
<stop offset="0.183878" stop-color="#EFDF97"/>
<stop offset="1" stop-color="#898057" stop-opacity="0"/>
</linearGradient>
<linearGradient id="paint3_linear_280_1389" x1="86.6812" y1="7.69205" x2="66.3994" y2="44.4818" gradientUnits="userSpaceOnUse">
<stop stop-color="#7A724E" stop-opacity="0"/>
<stop offset="0.48318" stop-color="#CEB963"/>
</linearGradient>
<linearGradient id="paint4_linear_280_1389" x1="72.1064" y1="50.25" x2="108.48" y2="29.25" gradientUnits="userSpaceOnUse">
<stop offset="0.183878" stop-color="#EFDF97"/>
<stop offset="1" stop-color="#898057" stop-opacity="0"/>
</linearGradient>
<linearGradient id="paint5_linear_280_1389" x1="108.151" y1="28.6811" x2="72.1917" y2="50.4011" gradientUnits="userSpaceOnUse">
<stop stop-color="#7A724E" stop-opacity="0"/>
<stop offset="0.48318" stop-color="#CEB963"/>
</linearGradient>
<linearGradient id="paint6_linear_280_1389" x1="74.25" y1="58.25" x2="116.25" y2="58.25" gradientUnits="userSpaceOnUse">
<stop offset="0.183878" stop-color="#EFDF97"/>
<stop offset="1" stop-color="#898057" stop-opacity="0"/>
</linearGradient>
<linearGradient id="paint7_linear_280_1389" x1="116.25" y1="57.5931" x2="74.2482" y2="58.4235" gradientUnits="userSpaceOnUse">
<stop stop-color="#7A724E" stop-opacity="0"/>
<stop offset="0.48318" stop-color="#CEB963"/>
</linearGradient>
<linearGradient id="paint8_linear_280_1389" x1="72.1064" y1="66.25" x2="108.48" y2="87.25" gradientUnits="userSpaceOnUse">
<stop offset="0.183878" stop-color="#EFDF97"/>
<stop offset="1" stop-color="#898057" stop-opacity="0"/>
</linearGradient>
<linearGradient id="paint9_linear_280_1389" x1="108.808" y1="86.6811" x2="72.0182" y2="66.3993" gradientUnits="userSpaceOnUse">
<stop stop-color="#7A724E" stop-opacity="0"/>
<stop offset="0.48318" stop-color="#CEB963"/>
</linearGradient>
<linearGradient id="paint10_linear_280_1389" x1="66.25" y1="72.1064" x2="87.25" y2="108.48" gradientUnits="userSpaceOnUse">
<stop offset="0.183878" stop-color="#EFDF97"/>
<stop offset="1" stop-color="#898057" stop-opacity="0"/>
</linearGradient>
<linearGradient id="paint11_linear_280_1389" x1="87.8188" y1="108.151" x2="66.0988" y2="72.1917" gradientUnits="userSpaceOnUse">
<stop stop-color="#7A724E" stop-opacity="0"/>
<stop offset="0.48318" stop-color="#CEB963"/>
</linearGradient>
<linearGradient id="paint12_linear_280_1389" x1="58.25" y1="74.25" x2="58.25" y2="116.25" gradientUnits="userSpaceOnUse">
<stop offset="0.183878" stop-color="#EFDF97"/>
<stop offset="1" stop-color="#898057" stop-opacity="0"/>
</linearGradient>
<linearGradient id="paint13_linear_280_1389" x1="58.9069" y1="116.25" x2="58.0765" y2="74.2482" gradientUnits="userSpaceOnUse">
<stop stop-color="#7A724E" stop-opacity="0"/>
<stop offset="0.48318" stop-color="#CEB963"/>
</linearGradient>
<linearGradient id="paint14_linear_280_1389" x1="50.25" y1="72.1064" x2="29.25" y2="108.48" gradientUnits="userSpaceOnUse">
<stop offset="0.183878" stop-color="#EFDF97"/>
<stop offset="1" stop-color="#898057" stop-opacity="0"/>
</linearGradient>
<linearGradient id="paint15_linear_280_1389" x1="29.8188" y1="108.808" x2="50.1006" y2="72.0182" gradientUnits="userSpaceOnUse">
<stop stop-color="#7A724E" stop-opacity="0"/>
<stop offset="0.48318" stop-color="#CEB963"/>
</linearGradient>
<linearGradient id="paint16_linear_280_1389" x1="44.3936" y1="66.25" x2="8.02049" y2="87.25" gradientUnits="userSpaceOnUse">
<stop offset="0.183878" stop-color="#EFDF97"/>
<stop offset="1" stop-color="#898057" stop-opacity="0"/>
</linearGradient>
<linearGradient id="paint17_linear_280_1389" x1="8.34893" y1="87.8189" x2="44.3083" y2="66.0989" gradientUnits="userSpaceOnUse">
<stop stop-color="#7A724E" stop-opacity="0"/>
<stop offset="0.48318" stop-color="#CEB963"/>
</linearGradient>
<linearGradient id="paint18_linear_280_1389" x1="42.25" y1="58.25" x2="0.25" y2="58.25" gradientUnits="userSpaceOnUse">
<stop offset="0.183878" stop-color="#EFDF97"/>
<stop offset="1" stop-color="#898057" stop-opacity="0"/>
</linearGradient>
<linearGradient id="paint19_linear_280_1389" x1="0.249998" y1="58.9069" x2="42.2518" y2="58.0765" gradientUnits="userSpaceOnUse">
<stop stop-color="#7A724E" stop-opacity="0"/>
<stop offset="0.48318" stop-color="#CEB963"/>
</linearGradient>
<linearGradient id="paint20_linear_280_1389" x1="44.3936" y1="50.25" x2="8.02049" y2="29.25" gradientUnits="userSpaceOnUse">
<stop offset="0.183878" stop-color="#EFDF97"/>
<stop offset="1" stop-color="#898057" stop-opacity="0"/>
</linearGradient>
<linearGradient id="paint21_linear_280_1389" x1="7.69205" y1="29.8189" x2="44.4818" y2="50.1007" gradientUnits="userSpaceOnUse">
<stop stop-color="#7A724E" stop-opacity="0"/>
<stop offset="0.48318" stop-color="#CEB963"/>
</linearGradient>
<linearGradient id="paint22_linear_280_1389" x1="50.25" y1="44.3936" x2="29.25" y2="8.02049" gradientUnits="userSpaceOnUse">
<stop offset="0.183878" stop-color="#EFDF97"/>
<stop offset="1" stop-color="#898057" stop-opacity="0"/>
</linearGradient>
<linearGradient id="paint23_linear_280_1389" x1="28.6812" y1="8.34893" x2="50.4012" y2="44.3083" gradientUnits="userSpaceOnUse">
<stop stop-color="#7A724E" stop-opacity="0"/>
<stop offset="0.48318" stop-color="#CEB963"/>
</linearGradient>
</defs>
</svg>
