<svg width="23" height="13" viewBox="0 0 23 13" fill="none" xmlns="http://www.w3.org/2000/svg">
<path d="M22.5 5.1448V0.572815L4.39199 3.04209C2.16231 3.34614 0.5 5.25051 0.5 7.50082V12.0728L18.608 9.60354C20.8377 9.29949 22.5 7.39512 22.5 5.1448Z" fill="url(#paint0_linear_382_25)" stroke="url(#paint1_linear_382_25)"/>
<mask id="path-2-outside-1_382_25" maskUnits="userSpaceOnUse" x="4.61217" y="3.46066" width="14.4528" height="6.46235" fill="black">
<rect fill="white" x="4.61217" y="3.46066" width="14.4528" height="6.46235"/>
<path d="M9.358 4.80891L9.14495 8.48889L8.48466 8.5596L7.04926 6.41153L7.02101 6.41455L6.88515 8.7309L6.1207 8.81277L6.33374 5.13279L7.00462 5.06095L8.43454 7.20782L8.46455 7.20461L8.59708 4.8904L9.358 4.80891ZM9.77655 8.42125L9.98959 4.74127L12.4259 4.48036L12.3875 5.12198L10.7156 5.30103L10.6666 6.1777L12.2132 6.01208L12.1748 6.65369L10.6282 6.81932L10.5794 7.69776L12.2584 7.51796L12.22 8.15957L9.77655 8.42125ZM13.6345 8.00808L12.813 4.4389L13.6481 4.34947L14.1008 6.84208L14.1308 6.83886L14.9369 4.21145L15.6519 4.13488L16.1652 6.62635L16.1969 6.62295L16.9407 3.99686L17.7758 3.90743L16.5282 7.69819L15.7831 7.77798L15.2369 5.4454L15.2086 5.44842L14.3796 7.92829L13.6345 8.00808Z"/>
</mask>
<path d="M9.358 4.80891L9.14495 8.48889L8.48466 8.5596L7.04926 6.41153L7.02101 6.41455L6.88515 8.7309L6.1207 8.81277L6.33374 5.13279L7.00462 5.06095L8.43454 7.20782L8.46455 7.20461L8.59708 4.8904L9.358 4.80891ZM9.77655 8.42125L9.98959 4.74127L12.4259 4.48036L12.3875 5.12198L10.7156 5.30103L10.6666 6.1777L12.2132 6.01208L12.1748 6.65369L10.6282 6.81932L10.5794 7.69776L12.2584 7.51796L12.22 8.15957L9.77655 8.42125ZM13.6345 8.00808L12.813 4.4389L13.6481 4.34947L14.1008 6.84208L14.1308 6.83886L14.9369 4.21145L15.6519 4.13488L16.1652 6.62635L16.1969 6.62295L16.9407 3.99686L17.7758 3.90743L16.5282 7.69819L15.7831 7.77798L15.2369 5.4454L15.2086 5.44842L14.3796 7.92829L13.6345 8.00808Z" fill="url(#paint2_linear_382_25)"/>
<path d="M9.358 4.80891L9.55766 4.82047L9.5713 4.58493L9.3367 4.61005L9.358 4.80891ZM9.14495 8.48889L9.16625 8.68775L9.33482 8.6697L9.34462 8.50045L9.14495 8.48889ZM8.48466 8.5596L8.31837 8.67072L8.38562 8.77135L8.50596 8.75846L8.48466 8.5596ZM7.04926 6.41153L7.21555 6.30041L7.1483 6.19978L7.02796 6.21266L7.04926 6.41153ZM7.02101 6.41455L6.99971 6.21569L6.83127 6.23373L6.82135 6.40284L7.02101 6.41455ZM6.88515 8.7309L6.90644 8.92976L7.07488 8.91172L7.0848 8.74261L6.88515 8.7309ZM6.1207 8.81277L5.92103 8.80121L5.90739 9.03675L6.14199 9.01163L6.1207 8.81277ZM6.33374 5.13279L6.31244 4.93393L6.14387 4.95198L6.13407 5.12123L6.33374 5.13279ZM7.00462 5.06095L7.17108 4.95008L7.10387 4.84917L6.98332 4.86208L7.00462 5.06095ZM8.43454 7.20782L8.26808 7.31869L8.33529 7.41959L8.45584 7.40668L8.43454 7.20782ZM8.46455 7.20461L8.48585 7.40347L8.65453 7.3854L8.66423 7.21604L8.46455 7.20461ZM8.59708 4.8904L8.57578 4.69154L8.4071 4.70961L8.3974 4.87897L8.59708 4.8904ZM9.358 4.80891L9.15833 4.79736L8.94529 8.47733L9.14495 8.48889L9.34462 8.50045L9.55766 4.82047L9.358 4.80891ZM9.14495 8.48889L9.12365 8.29002L8.46337 8.36074L8.48466 8.5596L8.50596 8.75846L9.16625 8.68775L9.14495 8.48889ZM8.48466 8.5596L8.65095 8.44848L7.21555 6.30041L7.04926 6.41153L6.88297 6.52265L8.31837 8.67072L8.48466 8.5596ZM7.04926 6.41153L7.02796 6.21266L6.99971 6.21569L7.02101 6.41455L7.04231 6.61342L7.07056 6.61039L7.04926 6.41153ZM7.02101 6.41455L6.82135 6.40284L6.68549 8.71919L6.88515 8.7309L7.0848 8.74261L7.22067 6.42626L7.02101 6.41455ZM6.88515 8.7309L6.86385 8.53204L6.0994 8.6139L6.1207 8.81277L6.14199 9.01163L6.90644 8.92976L6.88515 8.7309ZM6.1207 8.81277L6.32036 8.82432L6.53341 5.14435L6.33374 5.13279L6.13407 5.12123L5.92103 8.80121L6.1207 8.81277ZM6.33374 5.13279L6.35504 5.33166L7.02592 5.25981L7.00462 5.06095L6.98332 4.86208L6.31244 4.93393L6.33374 5.13279ZM7.00462 5.06095L6.83816 5.17181L8.26808 7.31869L8.43454 7.20782L8.601 7.09695L7.17108 4.95008L7.00462 5.06095ZM8.43454 7.20782L8.45584 7.40668L8.48585 7.40347L8.46455 7.20461L8.44326 7.00574L8.41324 7.00896L8.43454 7.20782ZM8.46455 7.20461L8.66423 7.21604L8.79675 4.90184L8.59708 4.8904L8.3974 4.87897L8.26488 7.19317L8.46455 7.20461ZM8.59708 4.8904L8.61837 5.08927L9.37929 5.00778L9.358 4.80891L9.3367 4.61005L8.57578 4.69154L8.59708 4.8904ZM9.77655 8.42125L9.57688 8.40969L9.56325 8.64523L9.79785 8.62011L9.77655 8.42125ZM9.98959 4.74127L9.9683 4.54241L9.79973 4.56046L9.78993 4.72972L9.98959 4.74127ZM12.4259 4.48036L12.6256 4.49232L12.6397 4.25632L12.4046 4.28149L12.4259 4.48036ZM12.3875 5.12198L12.4088 5.32084L12.577 5.30282L12.5872 5.13393L12.3875 5.12198ZM10.7156 5.30103L10.6943 5.10216L10.5254 5.12025L10.5159 5.28987L10.7156 5.30103ZM10.6666 6.1777L10.467 6.16655L10.4538 6.40164L10.6879 6.37656L10.6666 6.1777ZM12.2132 6.01208L12.4128 6.02403L12.427 5.78804L12.1919 5.81321L12.2132 6.01208ZM12.1748 6.65369L12.1961 6.85256L12.3643 6.83454L12.3744 6.66565L12.1748 6.65369ZM10.6282 6.81932L10.6069 6.62046L10.4379 6.63855L10.4285 6.80823L10.6282 6.81932ZM10.5794 7.69776L10.3797 7.68667L10.3667 7.92169L10.6007 7.89662L10.5794 7.69776ZM12.2584 7.51796L12.458 7.52991L12.4722 7.29392L12.2371 7.31909L12.2584 7.51796ZM12.22 8.15957L12.2413 8.35844L12.4095 8.34042L12.4196 8.17153L12.22 8.15957ZM9.77655 8.42125L9.97621 8.43281L10.1893 4.75283L9.98959 4.74127L9.78993 4.72972L9.57688 8.40969L9.77655 8.42125ZM9.98959 4.74127L10.0109 4.94014L12.4472 4.67922L12.4259 4.48036L12.4046 4.28149L9.9683 4.54241L9.98959 4.74127ZM12.4259 4.48036L12.2263 4.4684L12.1879 5.11002L12.3875 5.12198L12.5872 5.13393L12.6256 4.49232L12.4259 4.48036ZM12.3875 5.12198L12.3662 4.92311L10.6943 5.10216L10.7156 5.30103L10.7369 5.49989L12.4088 5.32084L12.3875 5.12198ZM10.7156 5.30103L10.5159 5.28987L10.467 6.16655L10.6666 6.1777L10.8663 6.18886L10.9153 5.31218L10.7156 5.30103ZM10.6666 6.1777L10.6879 6.37656L12.2345 6.21094L12.2132 6.01208L12.1919 5.81321L10.6453 5.97884L10.6666 6.1777ZM12.2132 6.01208L12.0136 6.00012L11.9751 6.64174L12.1748 6.65369L12.3744 6.66565L12.4128 6.02403L12.2132 6.01208ZM12.1748 6.65369L12.1535 6.45483L10.6069 6.62046L10.6282 6.81932L10.6495 7.01818L12.1961 6.85256L12.1748 6.65369ZM10.6282 6.81932L10.4285 6.80823L10.3797 7.68667L10.5794 7.69776L10.7791 7.70885L10.8279 6.83041L10.6282 6.81932ZM10.5794 7.69776L10.6007 7.89662L12.2797 7.71682L12.2584 7.51796L12.2371 7.31909L10.5581 7.4989L10.5794 7.69776ZM12.2584 7.51796L12.0588 7.506L12.0203 8.14762L12.22 8.15957L12.4196 8.17153L12.458 7.52991L12.2584 7.51796ZM12.22 8.15957L12.1987 7.96071L9.75525 8.22238L9.77655 8.42125L9.79785 8.62011L12.2413 8.35844L12.22 8.15957ZM13.6345 8.00808L13.4396 8.05294L13.4794 8.22584L13.6558 8.20694L13.6345 8.00808ZM12.813 4.4389L12.7917 4.24004L12.5676 4.26405L12.6181 4.48377L12.813 4.4389ZM13.6481 4.34947L13.8449 4.31374L13.8117 4.13081L13.6268 4.15061L13.6481 4.34947ZM14.1008 6.84208L13.904 6.87781L13.9372 7.06074L14.122 7.04094L14.1008 6.84208ZM14.1308 6.83886L14.1521 7.03773L14.2833 7.02368L14.322 6.89753L14.1308 6.83886ZM14.9369 4.21145L14.9156 4.01259L14.7844 4.02664L14.7457 4.15279L14.9369 4.21145ZM15.6519 4.13488L15.8478 4.09453L15.8112 3.91668L15.6306 3.93602L15.6519 4.13488ZM16.1652 6.62635L15.9693 6.6667L16.0059 6.84455L16.1865 6.82521L16.1652 6.62635ZM16.1969 6.62295L16.2182 6.82181L16.3526 6.80743L16.3894 6.67745L16.1969 6.62295ZM16.9407 3.99686L16.9194 3.79799L16.7851 3.81238L16.7483 3.94236L16.9407 3.99686ZM17.7758 3.90743L17.9657 3.96995L18.0626 3.67556L17.7545 3.70856L17.7758 3.90743ZM16.5282 7.69819L16.5495 7.89706L16.6778 7.88331L16.7181 7.76072L16.5282 7.69819ZM15.7831 7.77798L15.5884 7.82358L15.6287 7.99566L15.8044 7.97685L15.7831 7.77798ZM15.2369 5.4454L15.4316 5.3998L15.3913 5.22772L15.2156 5.24654L15.2369 5.4454ZM15.2086 5.44842L15.1874 5.24956L15.0597 5.26323L15.019 5.38501L15.2086 5.44842ZM14.3796 7.92829L14.4009 8.12716L14.5285 8.11348L14.5693 7.99171L14.3796 7.92829ZM13.6345 8.00808L13.8295 7.96322L13.0079 4.39404L12.813 4.4389L12.6181 4.48377L13.4396 8.05294L13.6345 8.00808ZM12.813 4.4389L12.8343 4.63777L13.6694 4.54834L13.6481 4.34947L13.6268 4.15061L12.7917 4.24004L12.813 4.4389ZM13.6481 4.34947L13.4513 4.38521L13.904 6.87781L14.1008 6.84208L14.2975 6.80634L13.8449 4.31374L13.6481 4.34947ZM14.1008 6.84208L14.122 7.04094L14.1521 7.03773L14.1308 6.83886L14.1095 6.64L14.0795 6.64322L14.1008 6.84208ZM14.1308 6.83886L14.322 6.89753L15.1281 4.27012L14.9369 4.21145L14.7457 4.15279L13.9396 6.7802L14.1308 6.83886ZM14.9369 4.21145L14.9582 4.41032L15.6732 4.33374L15.6519 4.13488L15.6306 3.93602L14.9156 4.01259L14.9369 4.21145ZM15.6519 4.13488L15.456 4.17523L15.9693 6.6667L16.1652 6.62635L16.361 6.586L15.8478 4.09453L15.6519 4.13488ZM16.1652 6.62635L16.1865 6.82521L16.2182 6.82181L16.1969 6.62295L16.1756 6.42409L16.1439 6.42749L16.1652 6.62635ZM16.1969 6.62295L16.3894 6.67745L17.1331 4.05136L16.9407 3.99686L16.7483 3.94236L16.0045 6.56845L16.1969 6.62295ZM16.9407 3.99686L16.962 4.19572L17.7971 4.10629L17.7758 3.90743L17.7545 3.70856L16.9194 3.79799L16.9407 3.99686ZM17.7758 3.90743L17.5858 3.8449L16.3382 7.63567L16.5282 7.69819L16.7181 7.76072L17.9657 3.96995L17.7758 3.90743ZM16.5282 7.69819L16.5069 7.49933L15.7618 7.57912L15.7831 7.77798L15.8044 7.97685L16.5495 7.89706L16.5282 7.69819ZM15.7831 7.77798L15.9779 7.73238L15.4316 5.3998L15.2369 5.4454L15.0422 5.491L15.5884 7.82358L15.7831 7.77798ZM15.2369 5.4454L15.2156 5.24654L15.1874 5.24956L15.2086 5.44842L15.2299 5.64729L15.2582 5.64426L15.2369 5.4454ZM15.2086 5.44842L15.019 5.38501L14.1899 7.86488L14.3796 7.92829L14.5693 7.99171L15.3983 5.51184L15.2086 5.44842ZM14.3796 7.92829L14.3583 7.72943L13.6133 7.80922L13.6345 8.00808L13.6558 8.20694L14.4009 8.12716L14.3796 7.92829Z" fill="#DA8130" mask="url(#path-2-outside-1_382_25)"/>
<defs>
<linearGradient id="paint0_linear_382_25" x1="11.5" y1="3.9522" x2="11.5" y2="12.0728" gradientUnits="userSpaceOnUse">
<stop stop-color="#F9A122"/>
<stop offset="1" stop-color="#F46F0C"/>
</linearGradient>
<linearGradient id="paint1_linear_382_25" x1="11.5" y1="0.572815" x2="11.5" y2="12.0728" gradientUnits="userSpaceOnUse">
<stop stop-color="#F8D954"/>
<stop offset="1" stop-color="#C4530D"/>
</linearGradient>
<linearGradient id="paint2_linear_382_25" x1="12" y1="5.07282" x2="12" y2="8.07282" gradientUnits="userSpaceOnUse">
<stop stop-color="#FEF8CE"/>
<stop offset="1" stop-color="#F7CD68"/>
</linearGradient>
</defs>
</svg>
